<svg xmlns="http://www.w3.org/2000/svg" viewBox="0 0 2048.000000 2048.000000" fill="none" role="img" aria-label="FreelanceCalc">
  <title>FreelanceCalc</title>
  <g transform="translate(0.000000,2048.000000) scale(0.500000,-0.500000)" fill="#302858">
<path d="M1992 3042 c0 -1 -10 -2 -26 -2 -16 0 -26 -1 -26 -2 0 -1 -6 -2 -14
-2 -8 0 -14 -1 -14 -2 0 -1 -6 -2 -14 -2 -8 0 -14 -1 -14 -2 0 -1 -4 -2 -10
-2 -5 0 -10 -1 -10 -2 0 -1 -4 -2 -10 -2 -5 0 -10 -1 -10 -2 0 -1 -4 -2 -8 -2
-4 0 -8 -1 -8 -2 0 -1 -4 -2 -10 -2 -5 0 -10 -1 -10 -2 0 -1 -3 -2 -6 -2 -3 0
-6 -1 -6 -2 0 -1 -4 -2 -8 -2 -4 0 -8 -1 -8 -2 0 -1 -3 -2 -6 -2 -3 0 -6 -1
-6 -2 0 -1 -3 -2 -6 -2 -3 0 -6 -1 -6 -2 0 -1 -3 -2 -6 -2 -3 0 -6 -1 -6 -2 0
-1 -3 -2 -6 -2 -3 0 -6 -1 -6 -2 0 -1 -3 -2 -6 -2 -3 0 -6 -1 -6 -2 0 -1 -2
-2 -4 -2 -2 0 -4 -1 -4 -2 0 -1 -3 -2 -6 -2 -3 0 -6 -1 -6 -2 0 -1 -2 -2 -4
-2 -2 0 -4 -1 -4 -2 0 -1 -3 -2 -6 -2 -3 0 -6 -1 -6 -2 0 -1 -2 -2 -4 -2 -2 0
-4 -1 -4 -2 0 -1 -3 -2 -6 -2 -3 0 -6 -1 -6 -2 0 -1 -2 -2 -4 -2 -2 0 -4 -1
-4 -2 0 -1 -2 -2 -4 -2 -2 0 -4 -1 -4 -2 0 -1 -2 -2 -4 -2 -2 0 -4 -1 -4 -2 0
-1 -2 -2 -4 -2 -2 0 -4 -1 -4 -2 0 -1 -2 -2 -4 -2 -2 0 -4 -1 -4 -2 0 -1 -2
-2 -4 -2 -2 0 -4 -1 -4 -2 0 -1 -2 -2 -4 -2 -2 0 -4 -1 -4 -2 0 -1 -2 -2 -4
-2 -2 0 -4 -1 -4 -2 0 -1 -2 -2 -4 -2 -2 0 -4 -2 -6 -4 -2 -2 -4 -4 -6 -4 -2
0 -4 -1 -4 -2 0 -1 -2 -2 -4 -2 -2 0 -4 -1 -4 -2 0 -1 -2 -2 -4 -2 -2 0 -4 -2
-6 -4 -2 -2 -4 -4 -6 -4 -2 0 -4 -1 -4 -2 0 -1 -2 -2 -4 -2 -2 0 -4 -2 -6 -4
-2 -2 -4 -4 -6 -4 -2 0 -4 -1 -4 -2 0 -1 -1 -2 -3 -2 -2 0 -6 -3 -9 -6 -3 -3
-7 -6 -8 -6 -2 0 -4 -2 -6 -4 -2 -2 -4 -4 -6 -4 -1 0 -5 -3 -8 -6 -3 -3 -7 -6
-8 -6 -1 0 -5 -3 -8 -6 -3 -3 -7 -6 -8 -6 -1 0 -7 -4 -12 -10 -5 -5 -11 -10
-12 -10 -1 0 -8 -5 -14 -12 -6 -7 -13 -12 -14 -12 -3 0 -72 -69 -72 -72 0 -1
-4 -7 -10 -12 -5 -5 -10 -11 -10 -12 0 -1 -4 -7 -10 -12 -5 -5 -10 -11 -10
-12 0 -1 -3 -5 -6 -8 -3 -3 -6 -7 -6 -8 0 -1 -3 -5 -6 -8 -3 -3 -6 -7 -6 -8 0
-1 -3 -5 -6 -8 -3 -3 -6 -7 -6 -8 0 -2 -2 -4 -4 -6 -2 -2 -4 -4 -4 -6 0 -2 -2
-4 -4 -6 -2 -2 -4 -4 -4 -6 0 -2 -2 -4 -4 -6 -2 -2 -4 -4 -4 -6 0 -2 -1 -4 -2
-4 -1 0 -2 -2 -2 -4 0 -2 -2 -4 -4 -6 -2 -2 -4 -4 -4 -6 0 -2 -1 -4 -2 -4 -1
0 -2 -2 -2 -4 0 -2 -1 -4 -2 -4 -1 0 -2 -2 -2 -4 0 -2 -2 -4 -4 -6 -2 -2 -4
-4 -4 -6 0 -2 -1 -4 -2 -4 -1 0 -2 -2 -2 -4 0 -2 -1 -4 -2 -4 -1 0 -2 -2 -2
-4 0 -2 -1 -4 -2 -4 -1 0 -2 -2 -2 -4 0 -2 -1 -4 -2 -4 -1 0 -2 -2 -2 -4 0 -2
-1 -4 -2 -4 -1 0 -2 -2 -2 -4 0 -2 -1 -4 -2 -4 -1 0 -2 -2 -2 -4 0 -2 -1 -4
-2 -4 -1 0 -2 -2 -2 -4 0 -2 -1 -4 -2 -4 -1 0 -2 -2 -2 -4 0 -2 -1 -4 -2 -4
-1 0 -2 -3 -2 -6 0 -3 -1 -6 -2 -6 -1 0 -2 -2 -2 -4 0 -2 -1 -4 -2 -4 -1 0 -2
-2 -2 -4 0 -2 -1 -4 -2 -4 -1 0 -2 -3 -2 -6 0 -3 -1 -6 -2 -6 -1 0 -2 -3 -2
-6 0 -3 -1 -6 -2 -6 -1 0 -2 -2 -2 -4 0 -2 -1 -4 -2 -4 -1 0 -2 -3 -2 -6 0 -3
-1 -6 -2 -6 -1 0 -2 -3 -2 -6 0 -3 -1 -6 -2 -6 -1 0 -2 -3 -2 -6 0 -3 -1 -6
-2 -6 -1 0 -2 -3 -2 -6 0 -3 -1 -6 -2 -6 -1 0 -2 -3 -2 -6 0 -3 -1 -6 -2 -6
-1 0 -2 -4 -2 -8 0 -4 -1 -8 -2 -8 -1 0 -2 -4 -2 -8 0 -4 -1 -8 -2 -8 -1 0 -2
-4 -2 -8 0 -4 -1 -8 -2 -8 -1 0 -2 -4 -2 -8 0 -4 -1 -8 -2 -8 -1 0 -2 -4 -2
-10 0 -5 -1 -10 -2 -10 -1 0 -2 -4 -2 -10 0 -5 -1 -10 -2 -10 -1 0 -2 -5 -2
-12 0 -7 -1 -12 -2 -12 -1 0 -2 -7 -2 -16 0 -9 -1 -16 -2 -16 -1 0 -2 -9 -2
-22 0 -13 -1 -22 -2 -22 -1 0 -2 -24 -2 -68 0 -44 1 -68 2 -68 1 0 2 -7 2 -18
0 -11 1 -18 2 -18 1 0 2 -6 2 -14 0 -8 1 -14 2 -14 1 0 2 -6 2 -14 0 -8 1 -14
2 -14 1 0 2 -4 2 -10 0 -5 1 -10 2 -10 1 0 2 -4 2 -10 0 -5 1 -10 2 -10 1 0 2
-4 2 -8 0 -4 1 -8 2 -8 1 0 2 -3 2 -6 0 -3 1 -6 2 -6 1 0 2 -4 2 -8 0 -4 1 -8
2 -8 1 0 2 -3 2 -6 0 -3 1 -6 2 -6 1 0 2 -4 2 -8 0 -4 1 -8 2 -8 1 0 2 -3 2
-6 0 -3 1 -6 2 -6 1 0 2 -3 2 -6 0 -3 1 -6 2 -6 1 0 2 -3 2 -6 0 -3 1 -6 2 -6
1 0 2 -3 2 -6 0 -3 1 -6 2 -6 1 0 2 -3 2 -6 0 -3 1 -6 2 -6 1 0 2 -2 2 -4 0
-2 1 -4 2 -4 1 0 2 -3 2 -6 0 -3 1 -6 2 -6 1 0 2 -2 2 -4 0 -2 1 -4 2 -4 1 0
2 -2 2 -4 0 -2 1 -4 2 -4 1 0 2 -2 2 -4 0 -2 1 -4 2 -4 1 0 2 -3 2 -6 0 -3 1
-6 2 -6 1 0 2 -2 2 -4 0 -2 1 -4 2 -4 1 0 2 -2 2 -4 0 -2 1 -4 2 -4 1 0 2 -2
2 -4 0 -2 1 -4 2 -4 1 0 2 -2 2 -4 0 -2 1 -4 2 -4 1 0 2 -2 2 -4 0 -2 1 -4 2
-4 1 0 2 -2 2 -4 0 -2 2 -4 4 -6 2 -2 4 -4 4 -6 0 -2 1 -4 2 -4 1 0 2 -2 2 -4
0 -2 1 -4 2 -4 1 0 2 -2 2 -4 0 -2 1 -4 2 -4 1 0 2 -2 2 -4 0 -2 2 -4 4 -6 2
-2 4 -4 4 -6 0 -2 2 -4 4 -6 2 -2 4 -4 4 -6 0 -2 1 -4 2 -4 1 0 2 -2 2 -4 0
-2 2 -4 4 -6 2 -2 4 -4 4 -6 0 -2 2 -4 4 -6 2 -2 4 -4 4 -6 0 -1 3 -5 6 -8 3
-3 6 -7 6 -8 0 -1 3 -5 6 -8 3 -3 6 -7 6 -8 0 -1 3 -5 6 -8 3 -3 6 -7 6 -8 0
-1 4 -6 8 -10 4 -4 8 -9 8 -10 0 -1 6 -8 14 -16 8 -8 14 -15 14 -16 0 -3 69
-72 72 -72 1 0 7 -4 12 -10 5 -5 11 -10 12 -10 1 0 7 -5 12 -10 5 -5 11 -10
12 -10 1 0 5 -3 8 -6 3 -3 7 -6 8 -6 2 0 4 -2 6 -4 2 -2 4 -4 6 -4 1 0 5 -3 8
-6 3 -3 7 -6 8 -6 2 0 4 -2 6 -4 2 -2 4 -4 6 -4 2 0 4 -2 6 -4 2 -2 4 -4 6 -4
2 0 4 -2 6 -4 2 -2 4 -4 6 -4 2 0 4 -1 4 -2 0 -1 2 -2 4 -2 2 0 4 -2 6 -4 2
-2 4 -4 6 -4 2 0 4 -1 4 -2 0 -1 2 -2 4 -2 2 0 4 -2 6 -4 2 -2 4 -4 6 -4 2 0
4 -1 4 -2 0 -1 2 -2 4 -2 2 0 4 -1 4 -2 0 -1 2 -2 4 -2 2 0 4 -1 4 -2 0 -1 2
-2 4 -2 2 0 4 -1 4 -2 0 -1 2 -2 4 -2 2 0 4 -1 4 -2 0 -1 2 -2 4 -2 2 0 4 -1
4 -2 0 -1 2 -2 4 -2 2 0 4 -1 4 -2 0 -1 2 -2 4 -2 2 0 4 -1 4 -2 0 -1 2 -2 4
-2 2 0 4 -1 4 -2 0 -1 3 -2 6 -2 3 0 6 -1 6 -2 0 -1 2 -2 4 -2 2 0 4 -1 4 -2
0 -1 2 -2 4 -2 2 0 4 -1 4 -2 0 -1 2 -2 4 -2 2 0 4 -1 4 -2 0 -1 3 -2 6 -2 3
0 6 -1 6 -2 0 -1 2 -2 4 -2 2 0 4 -1 4 -2 0 -1 3 -2 6 -2 3 0 6 -1 6 -2 0 -1
3 -2 6 -2 3 0 6 -1 6 -2 0 -1 3 -2 6 -2 3 0 6 -1 6 -2 0 -1 3 -2 6 -2 3 0 6
-1 6 -2 0 -1 3 -2 6 -2 3 0 6 -1 6 -2 0 -1 3 -2 6 -2 3 0 6 -1 6 -2 0 -1 4 -2
8 -2 4 0 8 -1 8 -2 0 -1 4 -2 8 -2 4 0 8 -1 8 -2 0 -1 4 -2 8 -2 4 0 8 -1 8
-2 0 -1 4 -2 8 -2 4 0 8 -1 8 -2 0 -1 5 -2 10 -2 6 0 10 -1 10 -2 0 -1 5 -2
10 -2 6 0 10 -1 10 -2 0 -1 5 -2 12 -2 7 0 12 -1 12 -2 0 -1 7 -2 16 -2 9 0
16 -1 16 -2 0 -1 7 -2 18 -2 11 0 18 -1 18 -2 0 -1 26 -2 74 -2 48 0 74 1 74
2 0 1 8 2 20 2 12 0 20 1 20 2 0 1 7 2 16 2 9 0 16 1 16 2 0 1 5 2 12 2 7 0
12 1 12 2 0 1 5 2 10 2 6 0 10 1 10 2 0 1 5 2 10 2 6 0 10 1 10 2 0 1 4 2 8 2
4 0 8 1 8 2 0 1 4 2 8 2 4 0 8 1 8 2 0 1 4 2 8 2 4 0 8 1 8 2 0 1 4 2 8 2 4 0
8 1 8 2 0 1 3 2 6 2 3 0 6 1 6 2 0 1 3 2 6 2 3 0 6 1 6 2 0 1 3 2 6 2 3 0 6 1
6 2 0 1 3 2 6 2 3 0 6 1 6 2 0 1 3 2 6 2 3 0 6 1 6 2 0 1 2 2 4 2 2 0 4 1 4 2
0 1 3 2 6 2 3 0 6 1 6 2 0 1 2 2 4 2 2 0 4 1 4 2 0 1 3 2 6 2 3 0 6 1 6 2 0 1
2 2 4 2 2 0 4 1 4 2 0 1 3 2 6 2 3 0 6 1 6 2 0 1 2 2 4 2 2 0 4 1 4 2 0 1 2 2
4 2 2 0 4 1 4 2 0 1 2 2 4 2 2 0 4 1 4 2 0 1 2 2 4 2 2 0 4 1 4 2 0 1 2 2 4 2
2 0 4 1 4 2 0 1 2 2 4 2 2 0 4 1 4 2 0 1 2 2 4 2 2 0 4 1 4 2 0 1 2 2 4 2 2 0
4 1 4 2 0 1 2 2 4 2 2 0 4 1 4 2 0 1 2 2 4 2 2 0 4 2 6 4 2 2 4 4 6 4 2 0 4 1
4 2 0 1 2 2 4 2 2 0 4 2 6 4 2 2 4 4 6 4 2 0 4 1 4 2 0 1 2 2 4 2 2 0 4 2 6 4
2 2 4 4 6 4 2 0 4 2 6 4 2 2 4 4 6 4 2 0 4 2 6 4 2 2 4 4 6 4 1 0 5 3 8 6 3 3
7 6 8 6 2 0 4 2 6 4 2 2 4 4 6 4 1 0 6 4 10 8 4 4 9 8 10 8 1 0 6 4 10 8 4 4
9 8 10 8 1 0 7 5 12 10 5 5 11 10 12 10 3 0 80 77 80 80 0 1 5 8 12 14 7 6 12
13 12 14 0 1 3 5 6 8 3 3 6 7 6 8 0 1 3 5 6 8 3 3 6 7 6 8 0 1 3 5 6 8 3 3 6
7 6 8 0 1 3 5 6 8 3 3 6 7 6 8 0 2 2 4 4 6 2 2 4 4 4 6 0 2 2 4 4 6 2 2 4 4 4
6 0 2 2 4 4 6 2 2 4 4 4 6 0 2 1 4 2 4 1 0 2 2 2 4 0 2 1 4 2 4 1 0 2 2 2 4 0
2 2 4 4 6 2 2 4 4 4 6 0 2 1 4 2 4 1 0 2 2 2 4 0 2 2 4 4 6 2 2 4 4 4 6 0 2 1
4 2 4 1 0 2 2 2 4 0 2 1 4 2 4 1 0 2 2 2 4 0 2 1 4 2 4 1 0 2 2 2 4 0 2 1 4 2
4 1 0 2 2 2 4 0 2 1 4 2 4 1 0 2 2 2 4 0 2 1 4 2 4 1 0 2 2 2 4 0 2 1 4 2 4 1
0 2 2 2 4 0 2 1 4 2 4 1 0 2 2 2 4 0 2 1 4 2 4 1 0 2 3 2 6 0 3 1 6 2 6 1 0 2
2 2 4 0 2 1 4 2 4 1 0 2 3 2 6 0 3 1 6 2 6 1 0 2 2 2 4 0 2 1 4 2 4 1 0 2 3 2
6 0 3 1 6 2 6 1 0 2 2 2 4 0 2 1 4 2 4 1 0 2 3 2 6 0 3 1 6 2 6 1 0 2 3 2 6 0
3 1 6 2 6 1 0 2 3 2 6 0 3 1 6 2 6 1 0 2 4 2 8 0 4 1 8 2 8 1 0 2 3 2 6 0 3 1
6 2 6 1 0 2 4 2 8 0 4 1 8 2 8 1 0 2 3 2 6 0 3 1 6 2 6 1 0 2 5 2 10 0 6 1 10
2 10 1 0 2 4 2 8 0 4 1 8 2 8 1 0 2 5 2 10 0 6 1 10 2 10 1 0 2 5 2 12 0 7 1
12 2 12 1 0 2 6 2 14 0 8 1 14 2 14 1 0 2 7 2 18 0 11 1 18 2 18 1 0 2 29 2
84 0 55 -1 84 -2 84 -1 0 -2 8 -2 20 0 12 -1 20 -2 20 -1 0 -2 5 -2 12 0 7 -1
12 -2 12 -1 0 -2 5 -2 10 0 6 -1 10 -2 10 -1 0 -2 5 -2 10 0 6 -1 10 -2 10 -1
0 -2 4 -2 8 0 4 -1 8 -2 8 -1 0 -2 5 -2 10 0 6 -1 10 -2 10 -1 0 -2 4 -2 8 0
4 -1 8 -2 8 -1 0 -2 4 -2 8 0 4 -1 8 -2 8 -1 0 -2 3 -2 6 0 3 -1 6 -2 6 -1 0
-2 4 -2 8 0 4 -1 8 -2 8 -1 0 -2 3 -2 6 0 3 -1 6 -2 6 -1 0 -2 2 -2 4 0 2 -1
4 -2 4 -1 0 -2 3 -2 6 0 3 -1 6 -2 6 -1 0 -2 3 -2 6 0 3 -1 6 -2 6 -1 0 -2 2
-2 4 0 2 -1 4 -2 4 -1 0 -2 3 -2 6 0 3 -1 6 -2 6 -1 0 -2 3 -2 6 0 3 -1 6 -2
6 -1 0 -2 2 -2 4 0 2 -1 4 -2 4 -1 0 -2 2 -2 4 0 2 -1 4 -2 4 -1 0 -2 2 -2 4
0 2 -1 4 -2 4 -1 0 -2 2 -2 4 0 2 -1 4 -2 4 -1 0 -2 2 -2 4 0 2 -1 4 -2 4 -1
0 -2 2 -2 4 0 2 -1 4 -2 4 -1 0 -2 2 -2 4 0 2 -1 4 -2 4 -1 0 -2 3 -2 6 0 3
-1 6 -2 6 -1 0 -2 2 -2 4 0 2 -2 4 -4 6 -2 2 -4 4 -4 6 0 2 -1 4 -2 4 -1 0 -2
2 -2 4 0 2 -1 4 -2 4 -1 0 -2 2 -2 4 0 2 -1 4 -2 4 -1 0 -2 2 -2 4 0 2 -2 4
-4 6 -2 2 -4 4 -4 6 0 2 -1 4 -2 4 -1 0 -2 2 -2 4 0 2 -2 4 -4 6 -2 2 -4 4 -4
6 0 2 -2 4 -4 6 -2 2 -4 4 -4 6 0 2 -2 4 -4 6 -2 2 -4 4 -4 6 0 2 -2 4 -4 6
-2 2 -4 4 -4 6 0 2 -2 4 -4 6 -2 2 -4 4 -4 6 0 1 -3 5 -6 8 -3 3 -6 7 -6 8 0
1 -4 6 -8 10 -4 4 -8 9 -8 10 0 1 -3 5 -6 8 -3 3 -6 7 -6 8 0 1 -5 8 -12 14
-7 6 -12 13 -12 14 0 3 -73 76 -76 76 -1 0 -8 5 -14 12 -6 7 -13 12 -14 12 -1
0 -7 5 -12 10 -5 6 -11 10 -12 10 -1 0 -5 3 -8 6 -3 3 -7 6 -8 6 -1 0 -5 3 -8
6 -3 3 -7 6 -9 6 -2 0 -3 1 -3 2 0 1 -1 2 -3 2 -2 0 -6 3 -9 6 -3 3 -7 6 -8 6
-2 0 -4 2 -6 4 -2 2 -4 4 -6 4 -2 0 -4 1 -4 2 0 1 -2 2 -4 2 -2 0 -4 2 -6 4
-2 2 -4 4 -6 4 -2 0 -4 2 -6 4 -2 2 -4 4 -6 4 -2 0 -4 1 -4 2 0 1 -2 2 -4 2
-2 0 -4 1 -4 2 0 1 -2 2 -4 2 -2 0 -4 2 -6 4 -2 2 -4 4 -6 4 -2 0 -4 1 -4 2 0
1 -2 2 -4 2 -2 0 -4 1 -4 2 0 1 -2 2 -4 2 -2 0 -4 1 -4 2 0 1 -2 2 -4 2 -2 0
-4 1 -4 2 0 1 -2 2 -4 2 -2 0 -4 1 -4 2 0 1 -2 2 -4 2 -2 0 -4 1 -4 2 0 1 -2
2 -4 2 -2 0 -4 1 -4 2 0 1 -2 2 -4 2 -2 0 -4 1 -4 2 0 1 -2 2 -4 2 -2 0 -4 1
-4 2 0 1 -3 2 -6 2 -3 0 -6 1 -6 2 0 1 -2 2 -4 2 -2 0 -4 1 -4 2 0 1 -2 2 -4
2 -2 0 -4 1 -4 2 0 1 -3 2 -6 2 -3 0 -6 1 -6 2 0 1 -3 2 -6 2 -3 0 -6 1 -6 2
0 1 -2 2 -4 2 -2 0 -4 1 -4 2 0 1 -3 2 -6 2 -3 0 -6 1 -6 2 0 1 -3 2 -6 2 -3
0 -6 1 -6 2 0 1 -2 2 -4 2 -2 0 -4 1 -4 2 0 1 -4 2 -8 2 -4 0 -8 1 -8 2 0 1
-3 2 -6 2 -3 0 -6 1 -6 2 0 1 -3 2 -6 2 -3 0 -6 1 -6 2 0 1 -4 2 -8 2 -4 0 -8
1 -8 2 0 1 -4 2 -8 2 -4 0 -8 1 -8 2 0 1 -4 2 -10 2 -5 0 -10 1 -10 2 0 1 -4
2 -10 2 -5 0 -10 1 -10 2 0 1 -4 2 -10 2 -5 0 -10 1 -10 2 0 1 -5 2 -12 2 -7
0 -12 1 -12 2 0 1 -7 2 -16 2 -9 0 -16 1 -16 2 0 1 -8 2 -20 2 -12 0 -20 1
-20 2 0 1 -22 2 -62 2 -40 0 -62 -1 -62 -2z m72 -24 c0 -1 2 -2 4 -2 2 0 4 -1
4 -2 0 -1 2 -2 4 -2 2 0 4 -1 4 -2 0 -1 1 -2 3 -2 4 0 13 -9 13 -12 0 -2 2 -4
4 -6 2 -2 4 -4 4 -6 0 -2 1 -4 2 -4 1 0 2 -4 2 -8 0 -4 1 -8 2 -8 1 0 2 -2 2
-4 0 -2 -1 -4 -2 -4 -1 0 -2 -4 -2 -10 0 -5 -1 -10 -2 -10 -1 0 -2 -2 -2 -4 0
-2 -1 -4 -2 -4 -1 0 -2 -1 -2 -3 0 -4 -17 -21 -21 -21 -2 0 -3 -1 -3 -2 0 -1
-2 -2 -4 -2 -2 0 -4 -1 -4 -2 0 -1 -8 -2 -20 -2 -12 0 -20 1 -20 2 0 1 -2 2
-4 2 -2 0 -4 1 -4 2 0 1 -1 2 -3 2 -4 0 -25 21 -25 25 0 2 -1 3 -2 3 -1 0 -2
4 -2 8 0 4 -1 8 -2 8 -1 0 -2 5 -2 10 0 6 1 10 2 10 1 0 2 3 2 6 0 3 1 6 2 6
1 0 2 2 2 4 0 2 1 4 2 4 1 0 2 1 2 3 0 4 17 21 21 21 2 0 3 1 3 2 0 1 2 2 4 2
2 0 4 1 4 2 0 1 7 2 18 2 11 0 18 -1 18 -2z m661 -341 c4 -4 7 -8 7 -10 0 -2
1 -3 2 -3 1 0 2 -3 2 -6 0 -3 -1 -6 -2 -6 -1 0 -2 -3 -2 -6 0 -3 -1 -6 -2 -6
-1 0 -2 -2 -2 -4 0 -2 -1 -4 -2 -4 -1 0 -2 -2 -2 -4 0 -2 -1 -4 -2 -4 -1 0 -2
-3 -2 -6 0 -3 -1 -6 -2 -6 -1 0 -2 -2 -2 -4 0 -2 -1 -4 -2 -4 -1 0 -2 -3 -2
-6 0 -3 -1 -6 -2 -6 -1 0 -2 -3 -2 -6 0 -3 -1 -6 -2 -6 -1 0 -2 -2 -2 -4 0 -2
-1 -4 -2 -4 -1 0 -2 -3 -2 -6 0 -3 -1 -6 -2 -6 -1 0 -2 -3 -2 -6 0 -3 -1 -6
-2 -6 -1 0 -2 -2 -2 -4 0 -2 -1 -4 -2 -4 -1 0 -2 -3 -2 -6 0 -3 -1 -6 -2 -6
-1 0 -2 -2 -2 -4 0 -2 -1 -4 -2 -4 -1 0 -2 -3 -2 -6 0 -3 -1 -6 -2 -6 -1 0 -2
-2 -2 -4 0 -2 -1 -4 -2 -4 -1 0 -2 -3 -2 -6 0 -3 -1 -6 -2 -6 -1 0 -2 -2 -2
-4 0 -2 -1 -4 -2 -4 -1 0 -2 -3 -2 -6 0 -3 -1 -6 -2 -6 -1 0 -2 -3 -2 -6 0 -3
-1 -6 -2 -6 -1 0 -2 -2 -2 -4 0 -2 -1 -4 -2 -4 -1 0 -2 -3 -2 -6 0 -3 -1 -6
-2 -6 -1 0 -2 -2 -2 -4 0 -2 -1 -4 -2 -4 -1 0 -2 -3 -2 -6 0 -3 -1 -6 -2 -6
-1 0 -2 -1 -2 -3 0 -4 -5 -9 -9 -9 -2 0 -3 -1 -3 -2 0 -1 -81 -2 -239 -2 -205
0 -240 0 -242 -3 -4 -4 -4 -154 0 -158 2 -3 32 -3 203 -3 l200 0 7 -7 c6 -6 7
-8 7 -16 0 -5 -1 -9 -2 -9 -1 0 -2 -3 -2 -6 0 -3 -1 -6 -2 -6 -1 0 -2 -3 -2
-6 0 -3 -1 -6 -2 -6 -1 0 -2 -2 -2 -4 0 -2 -1 -4 -2 -4 -1 0 -2 -3 -2 -6 0 -3
-1 -6 -2 -6 -1 0 -2 -3 -2 -6 0 -3 -1 -6 -2 -6 -1 0 -2 -3 -2 -6 0 -3 -1 -6
-2 -6 -1 0 -2 -3 -2 -6 0 -3 -1 -6 -2 -6 -1 0 -2 -2 -2 -4 0 -2 -1 -4 -2 -4
-1 0 -2 -3 -2 -6 0 -3 -1 -6 -2 -6 -1 0 -2 -2 -2 -4 0 -2 -1 -4 -2 -4 -1 0 -2
-3 -2 -6 0 -3 -1 -6 -2 -6 -1 0 -2 -3 -2 -6 0 -3 -1 -6 -2 -6 -1 0 -2 -2 -2
-4 0 -2 -1 -4 -2 -4 -1 0 -2 -3 -2 -6 0 -3 -1 -6 -2 -6 -1 0 -2 -2 -2 -4 0 -2
-1 -4 -2 -4 -1 0 -2 -3 -2 -6 0 -3 -1 -6 -2 -6 -1 0 -2 -2 -2 -4 0 -2 -1 -4
-2 -4 -1 0 -2 -3 -2 -6 0 -3 -1 -6 -2 -6 -1 0 -2 -2 -2 -4 0 -2 -1 -4 -2 -4
-1 0 -2 -3 -2 -6 0 -3 -1 -6 -2 -6 -1 0 -2 -3 -2 -6 0 -3 -1 -6 -2 -6 -1 0 -2
-3 -2 -6 0 -3 -1 -6 -2 -6 -1 0 -2 -1 -2 -3 0 -4 -5 -9 -9 -9 -2 0 -3 -1 -3
-2 0 -1 -53 -2 -155 -2 -132 0 -156 0 -158 -3 -3 -2 -3 -40 -3 -261 l0 -258
-7 -7 -7 -7 -128 0 -128 0 -5 5 c-3 3 -5 6 -5 8 0 2 -1 3 -2 3 -1 0 -2 69 -2
204 0 203 0 204 -4 204 -2 0 -4 -1 -4 -2 0 -1 -2 -2 -4 -2 -2 0 -4 -2 -6 -4
-2 -2 -4 -4 -6 -4 -2 0 -4 -2 -6 -4 -2 -2 -4 -4 -6 -4 -2 0 -4 -2 -6 -4 -2 -2
-4 -4 -6 -4 -2 0 -4 -2 -6 -4 -2 -2 -4 -4 -6 -4 -2 0 -4 -2 -6 -4 -2 -2 -4 -4
-6 -4 -2 0 -4 -2 -6 -4 -2 -2 -4 -4 -6 -4 -2 0 -4 -2 -6 -4 -2 -2 -4 -4 -6 -4
-2 0 -4 -2 -6 -4 -2 -2 -4 -4 -6 -4 -2 0 -4 -2 -6 -4 -2 -2 -4 -4 -6 -4 -2 0
-4 -2 -6 -4 -2 -2 -4 -4 -6 -4 -2 0 -4 -2 -6 -4 -2 -2 -4 -4 -6 -4 -2 0 -4 -2
-6 -4 -2 -2 -4 -4 -6 -4 -2 0 -4 -2 -6 -4 -2 -2 -4 -4 -6 -4 -2 0 -4 -2 -6 -4
-2 -2 -4 -4 -6 -4 -1 0 -5 -3 -8 -6 -3 -3 -7 -6 -9 -6 -2 0 -3 -1 -3 -2 0 -1
-2 -2 -4 -2 -2 0 -4 -2 -6 -4 -2 -2 -4 -4 -6 -4 -2 0 -4 -2 -6 -4 -2 -2 -4 -4
-6 -4 -2 0 -4 -2 -6 -4 -2 -2 -4 -4 -6 -4 -2 0 -4 -2 -6 -4 -2 -2 -4 -4 -6 -4
-2 0 -4 -2 -6 -4 -2 -2 -4 -4 -6 -4 -1 0 -5 -3 -8 -6 -3 -3 -7 -6 -8 -6 -2 0
-4 -2 -6 -4 -2 -2 -4 -4 -6 -4 -2 0 -4 -2 -6 -4 -2 -2 -4 -4 -6 -4 -2 0 -4 -2
-6 -4 -2 -2 -4 -4 -6 -4 -2 0 -4 -2 -6 -4 -2 -2 -4 -4 -6 -4 -2 0 -4 -2 -6 -4
-2 -2 -4 -4 -6 -4 -2 0 -4 -2 -6 -4 -2 -2 -4 -4 -6 -4 -2 0 -4 -2 -6 -4 -2 -2
-4 -4 -6 -4 -2 0 -4 -1 -4 -2 0 -1 -4 -2 -10 -2 -7 0 -10 1 -12 4 -2 2 -4 4
-6 4 -1 0 -5 3 -8 6 -3 3 -7 6 -8 6 -2 0 -4 2 -6 4 -2 2 -4 4 -6 4 -1 0 -6 4
-10 8 -4 4 -9 8 -10 8 -2 0 -4 2 -6 4 -2 2 -4 4 -6 4 -1 0 -5 3 -8 6 -3 3 -7
6 -8 6 -1 0 -5 3 -8 6 -3 3 -7 6 -8 6 -1 0 -6 4 -11 9 -7 7 -9 10 -9 15 0 5 2
8 9 15 5 5 10 9 12 9 1 0 3 2 5 4 2 2 4 4 6 4 2 0 4 1 4 2 0 1 2 2 4 2 2 0 4
2 6 4 2 2 4 4 6 4 2 0 4 2 6 4 2 2 4 4 6 4 2 0 4 2 6 4 2 2 4 4 6 4 2 0 4 2 6
4 2 2 4 4 6 4 2 0 4 1 4 2 0 1 2 2 4 2 2 0 4 2 6 4 2 2 4 4 6 4 1 0 5 3 8 6 3
3 7 6 8 6 2 0 4 2 6 4 2 2 4 4 6 4 2 0 4 2 6 4 2 2 4 4 6 4 2 0 4 2 6 4 2 2 4
4 6 4 2 0 4 1 4 2 0 1 1 2 3 2 2 0 6 3 9 6 3 3 7 6 8 6 2 0 4 2 6 4 2 2 4 4 6
4 2 0 4 2 6 4 2 2 4 4 6 4 2 0 4 2 6 4 2 2 4 4 6 4 2 0 4 2 6 4 2 2 4 4 6 4 2
0 4 2 6 4 2 2 4 4 6 4 2 0 4 2 6 4 2 2 4 4 6 4 2 0 4 2 6 4 2 2 4 4 6 4 2 0 4
2 6 4 2 2 4 4 6 4 2 0 4 2 6 4 2 2 4 4 6 4 2 0 4 2 6 4 2 2 4 4 6 4 2 0 4 2 6
4 2 2 4 4 6 4 2 0 4 2 6 4 2 2 4 4 6 4 2 0 4 2 6 4 2 2 4 4 6 4 2 0 4 2 6 4 2
2 4 4 6 4 2 0 4 2 6 4 2 2 4 4 6 4 2 0 4 2 6 4 2 2 4 4 6 4 2 0 4 2 6 4 2 2 4
4 6 4 2 0 4 1 4 2 0 1 1 2 3 2 2 0 6 3 9 6 3 3 7 6 8 6 2 0 4 2 6 4 2 2 4 4 6
4 2 0 4 2 6 4 2 2 4 4 6 4 2 0 4 2 6 4 2 2 4 4 6 4 2 0 4 1 4 2 0 1 1 2 3 2 2
0 6 3 9 6 3 3 7 6 9 6 2 0 3 1 3 2 0 1 2 2 4 2 2 0 4 2 6 4 2 2 4 4 6 4 2 0 4
2 6 4 2 2 4 4 6 4 2 0 4 2 6 4 2 2 4 4 6 4 2 0 4 2 6 4 2 2 4 4 6 4 2 0 4 2 6
4 2 2 4 4 6 4 2 0 4 2 6 4 2 2 4 4 6 4 3 0 8 5 8 8 0 3 -5 8 -8 8 -2 0 -4 2
-6 4 -2 2 -4 4 -6 4 -1 0 -5 3 -8 6 -3 3 -7 6 -9 6 -2 0 -3 1 -3 2 0 1 -1 2
-3 2 -2 0 -6 3 -9 6 -3 3 -7 6 -9 6 -2 0 -3 1 -3 2 0 1 -1 2 -3 2 -2 0 -6 3
-9 6 -3 3 -7 6 -8 6 -2 0 -4 2 -6 4 -2 2 -4 4 -6 4 -2 0 -4 1 -4 2 0 1 -1 2
-3 2 -2 0 -6 3 -9 6 -3 3 -7 6 -8 6 -1 0 -5 3 -8 6 -3 3 -7 6 -8 6 -2 0 -4 2
-6 4 -2 2 -4 4 -6 4 -2 0 -4 2 -6 4 -2 2 -4 4 -6 4 -2 0 -4 2 -6 4 -2 2 -4 4
-6 4 -2 0 -4 2 -6 4 -2 2 -4 4 -6 4 -1 0 -5 3 -8 6 -3 3 -7 6 -8 6 -2 0 -4 2
-6 4 -2 2 -4 4 -6 4 -2 0 -4 1 -4 2 0 1 -1 2 -3 2 -2 0 -6 3 -9 6 -3 3 -7 6
-8 6 -2 0 -4 2 -6 4 -2 2 -4 4 -6 4 -2 0 -4 2 -6 4 -2 2 -4 4 -6 4 -2 0 -4 2
-6 4 -2 2 -4 4 -6 4 -2 0 -4 2 -6 4 -2 2 -4 4 -6 4 -1 0 -5 3 -8 6 -3 3 -7 6
-8 6 -2 0 -4 2 -6 4 -2 2 -4 4 -6 4 -1 0 -5 3 -8 6 -3 3 -7 6 -8 6 -2 0 -4 2
-6 4 -2 2 -4 4 -6 4 -2 0 -4 2 -6 4 -2 2 -4 4 -6 4 -2 0 -4 2 -6 4 -2 2 -4 4
-6 4 -2 0 -4 2 -6 4 -2 2 -4 4 -6 4 -2 0 -4 2 -6 4 -2 2 -4 4 -6 4 -2 0 -4 2
-6 4 -2 2 -4 4 -6 4 -2 0 -4 2 -6 4 -2 2 -4 4 -6 4 -1 0 -5 3 -8 6 -3 3 -7 6
-8 6 -2 0 -4 2 -6 4 -2 2 -4 4 -6 4 -2 0 -4 2 -6 4 -2 2 -4 4 -6 4 -2 0 -4 2
-6 4 -2 2 -4 4 -6 4 -2 0 -4 2 -6 4 -2 2 -4 4 -6 4 -2 0 -4 1 -4 2 0 1 -1 2
-3 2 -2 0 -6 3 -9 6 -3 3 -7 6 -8 6 -2 0 -4 2 -6 4 -2 2 -4 4 -6 4 -2 0 -4 2
-6 4 -2 2 -4 4 -6 4 -2 0 -4 2 -6 4 -2 2 -4 4 -6 4 -2 0 -4 2 -6 4 -2 2 -4 4
-6 4 -3 0 -8 5 -8 9 0 2 -1 3 -2 3 -1 0 -2 3 -2 6 0 3 1 6 2 6 1 0 2 1 2 3 0
4 9 13 12 13 2 0 4 2 6 4 2 2 4 4 6 4 2 0 4 2 6 4 2 2 4 4 6 4 2 0 4 2 6 4 2
2 4 4 6 4 1 0 5 3 8 6 3 3 7 6 8 6 2 0 4 2 6 4 2 2 4 4 6 4 1 0 5 3 8 6 3 3 7
6 8 6 2 0 4 2 6 4 2 2 4 4 6 4 2 0 4 1 4 2 0 1 2 2 4 2 2 0 4 1 4 2 0 1 5 2
10 2 6 0 10 -1 10 -2 0 -1 2 -2 4 -2 2 0 4 -2 6 -4 2 -2 4 -4 6 -4 1 0 5 -3 8
-6 3 -3 7 -6 8 -6 2 0 4 -2 6 -4 2 -2 4 -4 6 -4 2 0 4 -2 6 -4 2 -2 4 -4 6 -4
2 0 4 -2 6 -4 2 -2 4 -4 6 -4 1 0 5 -3 8 -6 3 -3 7 -6 8 -6 2 0 4 -2 6 -4 2
-2 4 -4 6 -4 1 0 5 -3 8 -6 3 -3 7 -6 8 -6 2 0 4 -2 6 -4 2 -2 4 -4 6 -4 2 0
4 -2 6 -4 2 -2 4 -4 6 -4 2 0 4 -2 6 -4 2 -2 4 -4 6 -4 1 0 5 -3 8 -6 3 -3 7
-6 8 -6 2 0 4 -2 6 -4 2 -2 4 -4 6 -4 1 0 5 -3 8 -6 3 -3 7 -6 8 -6 2 0 4 -2
6 -4 2 -2 4 -4 6 -4 2 0 4 -2 6 -4 2 -2 4 -4 6 -4 2 0 4 -2 6 -4 2 -2 4 -4 6
-4 2 0 4 -2 6 -4 2 -2 4 -4 6 -4 2 0 4 -2 6 -4 2 -2 4 -4 6 -4 1 0 5 -3 8 -6
3 -3 7 -6 8 -6 2 0 4 -2 6 -4 2 -2 4 -4 6 -4 1 0 5 -3 8 -6 3 -3 7 -6 8 -6 2
0 4 -2 6 -4 2 -2 4 -4 6 -4 2 0 4 -2 6 -4 2 -2 4 -4 6 -4 2 0 4 -2 6 -4 2 -2
4 -4 6 -4 1 0 5 -3 8 -6 3 -3 7 -6 8 -6 2 0 4 -2 6 -4 2 -2 5 -4 8 -4 l6 0 0
175 0 175 9 9 8 9 421 0 420 0 7 -7z"/>
</g>
  <g transform="translate(0.000000,2048.000000) scale(0.500000,-0.500000)" fill="#88D8B0">
<path d="M2022 3012 c-2 -2 -4 -4 -5 -4 -4 0 -21 -17 -21 -21 0 -2 -1 -3 -2
-3 -1 0 -2 -3 -2 -6 0 -3 -1 -6 -2 -6 -1 0 -2 -7 -2 -16 0 -9 1 -16 2 -16 1 0
2 -2 2 -4 0 -2 1 -4 2 -4 1 0 2 -1 2 -3 0 -4 17 -21 21 -21 2 0 3 -1 3 -2 0
-1 2 -2 4 -2 2 0 4 -1 4 -2 0 -1 8 -2 20 -2 12 0 20 1 20 2 0 1 2 2 4 2 2 0 4
1 4 2 0 1 1 2 3 2 4 0 21 17 21 21 0 2 1 3 2 3 1 0 2 4 2 8 0 4 1 8 2 8 1 0 2
5 2 10 0 6 -1 10 -2 10 -1 0 -2 3 -2 6 0 3 -1 6 -2 6 -1 0 -2 2 -2 4 0 2 -1 4
-2 4 -1 0 -2 1 -2 3 0 4 -13 17 -17 17 -2 0 -3 1 -3 2 0 1 -2 2 -4 2 -2 0 -4
1 -4 2 0 1 -9 2 -22 2 -19 0 -21 0 -24 -4z"/>
<path d="M1468 2562 c0 -1 -1 -2 -3 -2 -2 0 -6 -3 -9 -6 -3 -3 -7 -6 -8 -6 -1
0 -5 -3 -8 -6 -3 -3 -7 -6 -8 -6 -2 0 -4 -2 -6 -4 -2 -2 -4 -4 -6 -4 -2 0 -4
-2 -6 -4 -2 -2 -4 -4 -6 -4 -2 0 -4 -2 -6 -4 -2 -2 -4 -4 -6 -4 -2 0 -4 -2 -6
-4 -2 -2 -4 -4 -6 -4 -2 0 -4 -2 -6 -4 -2 -2 -4 -4 -6 -4 -3 0 -12 -9 -12 -13
0 -2 -1 -3 -2 -3 -1 0 -2 -2 -2 -5 0 -5 16 -23 21 -23 1 0 3 -2 5 -4 2 -2 4
-4 6 -4 2 0 4 -2 6 -4 2 -2 4 -4 6 -4 1 0 5 -3 8 -6 3 -3 7 -6 8 -6 2 0 4 -2
6 -4 2 -2 4 -4 6 -4 2 0 4 -2 6 -4 2 -2 4 -4 6 -4 2 0 4 -2 6 -4 2 -2 4 -4 6
-4 2 0 4 -1 4 -2 0 -1 2 -2 4 -2 2 0 4 -2 6 -4 2 -2 4 -4 6 -4 2 0 4 -2 6 -4
2 -2 4 -4 6 -4 1 0 5 -3 8 -6 3 -3 7 -6 8 -6 2 0 4 -2 6 -4 2 -2 4 -4 6 -4 2
0 4 -2 6 -4 2 -2 4 -4 6 -4 2 0 4 -2 6 -4 2 -2 4 -4 6 -4 2 0 4 -2 6 -4 2 -2
4 -4 6 -4 2 0 4 -2 6 -4 2 -2 4 -4 6 -4 2 0 4 -2 6 -4 2 -2 4 -4 6 -4 1 0 5
-3 8 -6 3 -3 7 -6 8 -6 2 0 4 -2 6 -4 2 -2 4 -4 6 -4 1 0 5 -3 8 -6 3 -3 7 -6
8 -6 2 0 4 -2 6 -4 2 -2 4 -4 6 -4 2 0 4 -2 6 -4 2 -2 4 -4 6 -4 2 0 4 -2 6
-4 2 -2 4 -4 6 -4 2 0 4 -2 6 -4 2 -2 4 -4 6 -4 2 0 4 -2 6 -4 2 -2 4 -4 6 -4
1 0 5 -3 8 -6 3 -3 7 -6 8 -6 2 0 4 -2 6 -4 2 -2 4 -4 6 -4 2 0 4 -2 6 -4 2
-2 4 -4 6 -4 2 0 4 -2 6 -4 2 -2 4 -4 6 -4 2 0 4 -2 6 -4 2 -2 4 -4 6 -4 2 0
4 -2 6 -4 2 -2 4 -4 6 -4 2 0 4 -2 6 -4 2 -2 4 -4 6 -4 1 0 5 -3 8 -6 3 -3 7
-6 8 -6 2 0 4 -2 6 -4 2 -2 4 -4 6 -4 1 0 5 -3 8 -6 3 -3 7 -6 9 -6 2 0 3 -1
3 -2 0 -1 2 -2 4 -2 2 0 4 -2 6 -4 2 -2 4 -4 6 -4 1 0 5 -3 8 -6 3 -3 7 -6 8
-6 2 0 4 -2 6 -4 2 -2 4 -4 6 -4 2 0 4 -2 6 -4 2 -2 4 -4 6 -4 2 0 4 -2 6 -4
2 -2 4 -4 6 -4 2 0 4 -2 6 -4 2 -2 4 -4 6 -4 2 0 4 -2 6 -4 2 -2 4 -4 6 -4 2
0 4 -2 6 -4 2 -3 5 -4 12 -4 7 0 10 1 12 4 2 2 4 4 6 4 2 0 4 2 6 4 2 2 4 4 6
4 2 0 4 2 6 4 2 2 4 4 6 4 2 0 4 2 6 4 2 2 4 4 6 4 2 0 4 2 6 4 2 2 4 4 6 4 2
0 4 2 6 4 2 2 4 4 6 4 2 0 4 2 6 4 2 2 4 4 6 4 2 0 4 2 6 4 2 2 4 4 6 4 2 0 4
2 6 4 2 2 4 4 6 4 3 0 12 9 12 13 0 2 -1 3 -2 3 -1 0 -2 1 -2 3 0 4 -5 9 -9 9
-2 0 -3 1 -3 2 0 1 -1 2 -3 2 -2 0 -6 3 -9 6 -3 3 -7 6 -8 6 -2 0 -4 2 -6 4
-2 2 -4 4 -6 4 -2 0 -4 2 -6 4 -2 2 -4 4 -6 4 -2 0 -4 2 -6 4 -2 2 -4 4 -6 4
-1 0 -5 3 -8 6 -3 3 -7 6 -8 6 -2 0 -4 2 -6 4 -2 2 -4 4 -6 4 -1 0 -5 3 -8 6
-3 3 -7 6 -8 6 -2 0 -4 2 -6 4 -2 2 -4 4 -6 4 -2 0 -4 2 -6 4 -2 2 -4 4 -6 4
-2 0 -4 2 -6 4 -2 2 -4 4 -6 4 -1 0 -5 3 -8 6 -3 3 -7 6 -9 6 -2 0 -3 1 -3 2
0 1 -1 2 -3 2 -2 0 -7 4 -11 8 -4 4 -9 8 -10 8 -2 0 -4 2 -6 4 -2 2 -4 4 -6 4
-1 0 -5 3 -8 6 -3 3 -7 6 -8 6 -2 0 -4 2 -6 4 -2 2 -4 4 -6 4 -2 0 -4 2 -6 4
-2 2 -4 4 -6 4 -1 0 -5 3 -8 6 -3 3 -7 6 -8 6 -2 0 -4 2 -6 4 -2 2 -4 4 -6 4
-1 0 -5 3 -8 6 -3 3 -7 6 -8 6 -2 0 -4 2 -6 4 -2 2 -4 4 -6 4 -2 0 -4 2 -6 4
-2 2 -4 4 -6 4 -2 0 -4 2 -6 4 -2 2 -4 4 -6 4 -1 0 -5 3 -8 6 -3 3 -7 6 -8 6
-2 0 -4 2 -6 4 -2 2 -4 4 -6 4 -2 0 -4 2 -6 4 -2 2 -4 4 -6 4 -2 0 -4 2 -6 4
-2 2 -4 4 -6 4 -1 0 -5 3 -8 6 -3 3 -7 6 -8 6 -2 0 -4 2 -6 4 -2 2 -4 4 -6 4
-2 0 -4 2 -6 4 -2 2 -4 4 -6 4 -2 0 -4 2 -6 4 -2 2 -4 4 -6 4 -1 0 -5 3 -8 6
-3 3 -7 6 -8 6 -2 0 -4 2 -6 4 -2 2 -4 4 -6 4 -1 0 -5 3 -8 6 -3 3 -7 6 -8 6
-2 0 -4 2 -6 4 -2 2 -4 4 -6 4 -2 0 -4 2 -6 4 -2 2 -4 4 -6 4 -1 0 -5 3 -8 6
-3 3 -7 6 -8 6 -2 0 -4 2 -6 4 -2 2 -4 4 -6 4 -2 0 -4 2 -6 4 -2 2 -4 4 -6 4
-1 0 -5 3 -8 6 -5 5 -7 6 -19 6 -7 0 -13 -1 -13 -2z"/>
</g>
  <g transform="translate(0.000000,2048.000000) scale(0.500000,-0.500000)" fill="#F5F0E5">
<path d="M1988 3066 c0 -1 -9 -2 -22 -2 -13 0 -22 -1 -22 -2 0 -1 -7 -2 -16
-2 -9 0 -16 -1 -16 -2 0 -1 -6 -2 -14 -2 -8 0 -14 -1 -14 -2 0 -1 -4 -2 -10
-2 -5 0 -10 -1 -10 -2 0 -1 -4 -2 -10 -2 -5 0 -10 -1 -10 -2 0 -1 -4 -2 -8 -2
-4 0 -8 -1 -8 -2 0 -1 -4 -2 -8 -2 -4 0 -8 -1 -8 -2 0 -1 -4 -2 -8 -2 -4 0 -8
-1 -8 -2 0 -1 -4 -2 -8 -2 -4 0 -8 -1 -8 -2 0 -1 -3 -2 -6 -2 -3 0 -6 -1 -6
-2 0 -1 -3 -2 -6 -2 -3 0 -6 -1 -6 -2 0 -1 -3 -2 -6 -2 -3 0 -6 -1 -6 -2 0 -1
-3 -2 -6 -2 -3 0 -6 -1 -6 -2 0 -1 -3 -2 -6 -2 -3 0 -6 -1 -6 -2 0 -1 -3 -2
-6 -2 -3 0 -6 -1 -6 -2 0 -1 -2 -2 -4 -2 -2 0 -4 -1 -4 -2 0 -1 -3 -2 -6 -2
-3 0 -6 -1 -6 -2 0 -1 -2 -2 -4 -2 -2 0 -4 -1 -4 -2 0 -1 -3 -2 -6 -2 -3 0 -6
-1 -6 -2 0 -1 -2 -2 -4 -2 -2 0 -4 -1 -4 -2 0 -1 -2 -2 -4 -2 -2 0 -4 -1 -4
-2 0 -1 -2 -2 -4 -2 -2 0 -4 -1 -4 -2 0 -1 -3 -2 -6 -2 -3 0 -6 -1 -6 -2 0 -1
-2 -2 -4 -2 -2 0 -4 -1 -4 -2 0 -1 -2 -2 -4 -2 -2 0 -4 -1 -4 -2 0 -1 -2 -2
-4 -2 -2 0 -4 -1 -4 -2 0 -1 -2 -2 -4 -2 -2 0 -4 -2 -6 -4 -2 -2 -4 -4 -6 -4
-2 0 -4 -1 -4 -2 0 -1 -2 -2 -4 -2 -2 0 -4 -1 -4 -2 0 -1 -2 -2 -4 -2 -2 0 -4
-1 -4 -2 0 -1 -2 -2 -4 -2 -2 0 -4 -2 -6 -4 -2 -2 -4 -4 -6 -4 -2 0 -4 -1 -4
-2 0 -1 -2 -2 -4 -2 -2 0 -4 -2 -6 -4 -2 -2 -4 -4 -6 -4 -2 0 -4 -2 -6 -4 -2
-2 -4 -4 -6 -4 -2 0 -4 -1 -4 -2 0 -1 -1 -2 -3 -2 -2 0 -6 -3 -9 -6 -3 -3 -7
-6 -8 -6 -2 0 -4 -2 -6 -4 -2 -2 -4 -4 -6 -4 -1 0 -5 -3 -8 -6 -3 -3 -7 -6 -8
-6 -1 0 -5 -3 -8 -6 -3 -3 -7 -6 -8 -6 -1 0 -6 -4 -10 -8 -4 -4 -9 -8 -10 -8
-1 0 -7 -4 -12 -10 -5 -5 -11 -10 -12 -10 -3 0 -92 -89 -92 -92 0 -1 -4 -7
-10 -12 -5 -5 -10 -11 -10 -12 0 -1 -4 -6 -8 -10 -4 -4 -8 -9 -8 -10 0 -1 -3
-5 -6 -8 -3 -3 -6 -7 -6 -8 0 -1 -3 -5 -6 -8 -3 -3 -6 -7 -6 -8 0 -2 -2 -4 -4
-6 -2 -2 -4 -4 -4 -6 0 -1 -3 -5 -6 -8 -3 -3 -6 -7 -6 -9 0 -2 -1 -3 -2 -3 -1
0 -2 -2 -2 -4 0 -2 -2 -4 -4 -6 -2 -2 -4 -4 -4 -6 0 -2 -2 -4 -4 -6 -2 -2 -4
-4 -4 -6 0 -2 -1 -4 -2 -4 -1 0 -2 -2 -2 -4 0 -2 -2 -4 -4 -6 -2 -2 -4 -4 -4
-6 0 -2 -1 -4 -2 -4 -1 0 -2 -2 -2 -4 0 -2 -1 -4 -2 -4 -1 0 -2 -2 -2 -4 0 -2
-1 -4 -2 -4 -1 0 -2 -2 -2 -4 0 -2 -2 -4 -4 -6 -2 -2 -4 -4 -4 -6 0 -2 -1 -4
-2 -4 -1 0 -2 -2 -2 -4 0 -2 -1 -4 -2 -4 -1 0 -2 -2 -2 -4 0 -2 -1 -4 -2 -4
-1 0 -2 -2 -2 -4 0 -2 -1 -4 -2 -4 -1 0 -2 -3 -2 -6 0 -3 -1 -6 -2 -6 -1 0 -2
-2 -2 -4 0 -2 -1 -4 -2 -4 -1 0 -2 -2 -2 -4 0 -2 -1 -4 -2 -4 -1 0 -2 -2 -2
-4 0 -2 -1 -4 -2 -4 -1 0 -2 -3 -2 -6 0 -3 -1 -6 -2 -6 -1 0 -2 -2 -2 -4 0 -2
-1 -4 -2 -4 -1 0 -2 -3 -2 -6 0 -3 -1 -6 -2 -6 -1 0 -2 -2 -2 -4 0 -2 -1 -4
-2 -4 -1 0 -2 -3 -2 -6 0 -3 -1 -6 -2 -6 -1 0 -2 -3 -2 -6 0 -3 -1 -6 -2 -6
-1 0 -2 -3 -2 -6 0 -3 -1 -6 -2 -6 -1 0 -2 -3 -2 -6 0 -3 -1 -6 -2 -6 -1 0 -2
-3 -2 -6 0 -3 -1 -6 -2 -6 -1 0 -2 -3 -2 -6 0 -3 -1 -6 -2 -6 -1 0 -2 -4 -2
-8 0 -4 -1 -8 -2 -8 -1 0 -2 -4 -2 -8 0 -4 -1 -8 -2 -8 -1 0 -2 -4 -2 -8 0 -4
-1 -8 -2 -8 -1 0 -2 -4 -2 -8 0 -4 -1 -8 -2 -8 -1 0 -2 -4 -2 -10 0 -5 -1 -10
-2 -10 -1 0 -2 -4 -2 -10 0 -5 -1 -10 -2 -10 -1 0 -2 -6 -2 -14 0 -8 -1 -14
-2 -14 -1 0 -2 -7 -2 -16 0 -9 -1 -16 -2 -16 -1 0 -2 -9 -2 -22 0 -13 -1 -22
-2 -22 -1 0 -2 -22 -2 -62 0 -40 1 -62 2 -62 1 0 2 -9 2 -22 0 -13 1 -22 2
-22 1 0 2 -7 2 -16 0 -9 1 -16 2 -16 1 0 2 -6 2 -14 0 -8 1 -14 2 -14 1 0 2
-4 2 -10 0 -5 1 -10 2 -10 1 0 2 -4 2 -10 0 -5 1 -10 2 -10 1 0 2 -4 2 -8 0
-4 1 -8 2 -8 1 0 2 -4 2 -8 0 -4 1 -8 2 -8 1 0 2 -4 2 -8 0 -4 1 -8 2 -8 1 0
2 -4 2 -8 0 -4 1 -8 2 -8 1 0 2 -3 2 -6 0 -3 1 -6 2 -6 1 0 2 -3 2 -6 0 -3 1
-6 2 -6 1 0 2 -3 2 -6 0 -3 1 -6 2 -6 1 0 2 -3 2 -6 0 -3 1 -6 2 -6 1 0 2 -3
2 -6 0 -3 1 -6 2 -6 1 0 2 -3 2 -6 0 -3 1 -6 2 -6 1 0 2 -2 2 -4 0 -2 1 -4 2
-4 1 0 2 -3 2 -6 0 -3 1 -6 2 -6 1 0 2 -2 2 -4 0 -2 1 -4 2 -4 1 0 2 -3 2 -6
0 -3 1 -6 2 -6 1 0 2 -2 2 -4 0 -2 1 -4 2 -4 1 0 2 -2 2 -4 0 -2 1 -4 2 -4 1
0 2 -2 2 -4 0 -2 1 -4 2 -4 1 0 2 -3 2 -6 0 -3 1 -6 2 -6 1 0 2 -2 2 -4 0 -2
1 -4 2 -4 1 0 2 -2 2 -4 0 -2 1 -4 2 -4 1 0 2 -2 2 -4 0 -2 1 -4 2 -4 1 0 2
-2 2 -4 0 -2 2 -4 4 -6 2 -2 4 -4 4 -6 0 -2 1 -4 2 -4 1 0 2 -2 2 -4 0 -2 1
-4 2 -4 1 0 2 -2 2 -4 0 -2 1 -4 2 -4 1 0 2 -2 2 -4 0 -2 2 -4 4 -6 2 -2 4 -4
4 -6 0 -2 1 -4 2 -4 1 0 2 -2 2 -4 0 -2 2 -4 4 -6 2 -2 4 -4 4 -6 0 -2 2 -4 4
-6 2 -2 4 -4 4 -6 0 -2 1 -4 2 -4 1 0 2 -1 2 -3 0 -2 3 -6 6 -9 3 -3 6 -7 6
-8 0 -2 2 -4 4 -6 2 -2 4 -4 4 -6 0 -1 3 -5 6 -8 3 -3 6 -7 6 -8 0 -1 3 -5 6
-8 3 -3 6 -7 6 -8 0 -1 4 -6 8 -10 4 -4 8 -9 8 -10 0 -1 5 -7 10 -12 6 -5 10
-11 10 -12 0 -3 89 -92 92 -92 1 0 7 -4 12 -10 5 -5 11 -10 12 -10 1 0 6 -4
10 -8 4 -4 9 -8 10 -8 1 0 5 -3 8 -6 3 -3 7 -6 8 -6 1 0 5 -3 8 -6 3 -3 7 -6
8 -6 2 0 4 -2 6 -4 2 -2 4 -4 6 -4 1 0 5 -3 8 -6 3 -3 7 -6 9 -6 2 0 3 -1 3
-2 0 -1 2 -2 4 -2 2 0 4 -2 6 -4 2 -2 4 -4 6 -4 2 0 4 -2 6 -4 2 -2 4 -4 6 -4
2 0 4 -1 4 -2 0 -1 2 -2 4 -2 2 0 4 -2 6 -4 2 -2 4 -4 6 -4 2 0 4 -1 4 -2 0
-1 2 -2 4 -2 2 0 4 -1 4 -2 0 -1 2 -2 4 -2 2 0 4 -1 4 -2 0 -1 2 -2 4 -2 2 0
4 -2 6 -4 2 -2 4 -4 6 -4 2 0 4 -1 4 -2 0 -1 2 -2 4 -2 2 0 4 -1 4 -2 0 -1 2
-2 4 -2 2 0 4 -1 4 -2 0 -1 2 -2 4 -2 2 0 4 -1 4 -2 0 -1 3 -2 6 -2 3 0 6 -1
6 -2 0 -1 2 -2 4 -2 2 0 4 -1 4 -2 0 -1 2 -2 4 -2 2 0 4 -1 4 -2 0 -1 2 -2 4
-2 2 0 4 -1 4 -2 0 -1 3 -2 6 -2 3 0 6 -1 6 -2 0 -1 2 -2 4 -2 2 0 4 -1 4 -2
0 -1 3 -2 6 -2 3 0 6 -1 6 -2 0 -1 2 -2 4 -2 2 0 4 -1 4 -2 0 -1 3 -2 6 -2 3
0 6 -1 6 -2 0 -1 3 -2 6 -2 3 0 6 -1 6 -2 0 -1 3 -2 6 -2 3 0 6 -1 6 -2 0 -1
3 -2 6 -2 3 0 6 -1 6 -2 0 -1 3 -2 6 -2 3 0 6 -1 6 -2 0 -1 3 -2 6 -2 3 0 6
-1 6 -2 0 -1 4 -2 8 -2 4 0 8 -1 8 -2 0 -1 4 -2 8 -2 4 0 8 -1 8 -2 0 -1 4 -2
8 -2 4 0 8 -1 8 -2 0 -1 4 -2 8 -2 4 0 8 -1 8 -2 0 -1 5 -2 10 -2 6 0 10 -1
10 -2 0 -1 5 -2 10 -2 6 0 10 -1 10 -2 0 -1 6 -2 14 -2 8 0 14 -1 14 -2 0 -1
7 -2 16 -2 9 0 16 -1 16 -2 0 -1 9 -2 22 -2 13 0 22 -1 22 -2 0 -1 22 -2 62
-2 40 0 62 1 62 2 0 1 9 2 22 2 13 0 22 1 22 2 0 1 7 2 16 2 9 0 16 1 16 2 0
1 6 2 14 2 8 0 14 1 14 2 0 1 5 2 10 2 6 0 10 1 10 2 0 1 5 2 10 2 6 0 10 1
10 2 0 1 4 2 8 2 4 0 8 1 8 2 0 1 4 2 8 2 4 0 8 1 8 2 0 1 4 2 8 2 4 0 8 1 8
2 0 1 4 2 8 2 4 0 8 1 8 2 0 1 3 2 6 2 3 0 6 1 6 2 0 1 3 2 6 2 3 0 6 1 6 2 0
1 3 2 6 2 3 0 6 1 6 2 0 1 3 2 6 2 3 0 6 1 6 2 0 1 3 2 6 2 3 0 6 1 6 2 0 1 3
2 6 2 3 0 6 1 6 2 0 1 2 2 4 2 2 0 4 1 4 2 0 1 3 2 6 2 3 0 6 1 6 2 0 1 2 2 4
2 2 0 4 1 4 2 0 1 3 2 6 2 3 0 6 1 6 2 0 1 2 2 4 2 2 0 4 1 4 2 0 1 2 2 4 2 2
0 4 1 4 2 0 1 2 2 4 2 2 0 4 1 4 2 0 1 3 2 6 2 3 0 6 1 6 2 0 1 2 2 4 2 2 0 4
1 4 2 0 1 2 2 4 2 2 0 4 1 4 2 0 1 2 2 4 2 2 0 4 1 4 2 0 1 2 2 4 2 2 0 4 2 6
4 2 2 4 4 6 4 2 0 4 1 4 2 0 1 2 2 4 2 2 0 4 1 4 2 0 1 2 2 4 2 2 0 4 1 4 2 0
1 2 2 4 2 2 0 4 2 6 4 2 2 4 4 6 4 2 0 4 1 4 2 0 1 2 2 4 2 2 0 4 2 6 4 2 2 4
4 6 4 2 0 4 2 6 4 2 2 4 4 6 4 2 0 4 1 4 2 0 1 1 2 3 2 2 0 6 3 9 6 3 3 7 6 8
6 2 0 4 2 6 4 2 2 4 4 6 4 1 0 5 3 8 6 3 3 7 6 8 6 1 0 5 3 8 6 3 3 7 6 8 6 1
0 6 4 10 8 4 4 9 8 10 8 1 0 7 5 12 10 5 6 11 10 12 10 3 0 92 89 92 92 0 1 5
7 10 12 6 5 10 11 10 12 0 1 4 6 8 10 4 4 8 9 8 10 0 1 3 5 6 8 3 3 6 7 6 8 0
1 3 5 6 8 3 3 6 7 6 8 0 2 2 4 4 6 2 2 4 4 4 6 0 1 3 5 6 8 3 3 6 7 6 9 0 2 1
3 2 3 1 0 2 2 2 4 0 2 2 4 4 6 2 2 4 4 4 6 0 2 2 4 4 6 2 2 4 4 4 6 0 2 1 4 2
4 1 0 2 2 2 4 0 2 2 4 4 6 2 2 4 4 4 6 0 2 1 4 2 4 1 0 2 2 2 4 0 2 1 4 2 4 1
0 2 2 2 4 0 2 1 4 2 4 1 0 2 2 2 4 0 2 2 4 4 6 2 2 4 4 4 6 0 2 1 4 2 4 1 0 2
2 2 4 0 2 1 4 2 4 1 0 2 2 2 4 0 2 1 4 2 4 1 0 2 2 2 4 0 2 1 4 2 4 1 0 2 3 2
6 0 3 1 6 2 6 1 0 2 2 2 4 0 2 1 4 2 4 1 0 2 2 2 4 0 2 1 4 2 4 1 0 2 2 2 4 0
2 1 4 2 4 1 0 2 3 2 6 0 3 1 6 2 6 1 0 2 2 2 4 0 2 1 4 2 4 1 0 2 3 2 6 0 3 1
6 2 6 1 0 2 2 2 4 0 2 1 4 2 4 1 0 2 3 2 6 0 3 1 6 2 6 1 0 2 3 2 6 0 3 1 6 2
6 1 0 2 3 2 6 0 3 1 6 2 6 1 0 2 3 2 6 0 3 1 6 2 6 1 0 2 3 2 6 0 3 1 6 2 6 1
0 2 3 2 6 0 3 1 6 2 6 1 0 2 4 2 8 0 4 1 8 2 8 1 0 2 4 2 8 0 4 1 8 2 8 1 0 2
4 2 8 0 4 1 8 2 8 1 0 2 4 2 8 0 4 1 8 2 8 1 0 2 5 2 10 0 6 1 10 2 10 1 0 2
5 2 10 0 6 1 10 2 10 1 0 2 6 2 14 0 8 1 14 2 14 1 0 2 7 2 16 0 9 1 16 2 16
1 0 2 9 2 22 0 13 1 22 2 22 1 0 2 22 2 62 0 40 -1 62 -2 62 -1 0 -2 9 -2 22
0 13 -1 22 -2 22 -1 0 -2 7 -2 16 0 9 -1 16 -2 16 -1 0 -2 6 -2 14 0 8 -1 14
-2 14 -1 0 -2 5 -2 10 0 6 -1 10 -2 10 -1 0 -2 5 -2 10 0 6 -1 10 -2 10 -1 0
-2 4 -2 8 0 4 -1 8 -2 8 -1 0 -2 4 -2 8 0 4 -1 8 -2 8 -1 0 -2 4 -2 8 0 4 -1
8 -2 8 -1 0 -2 4 -2 8 0 4 -1 8 -2 8 -1 0 -2 3 -2 6 0 3 -1 6 -2 6 -1 0 -2 3
-2 6 0 3 -1 6 -2 6 -1 0 -2 3 -2 6 0 3 -1 6 -2 6 -1 0 -2 3 -2 6 0 3 -1 6 -2
6 -1 0 -2 3 -2 6 0 3 -1 6 -2 6 -1 0 -2 3 -2 6 0 3 -1 6 -2 6 -1 0 -2 2 -2 4
0 2 -1 4 -2 4 -1 0 -2 3 -2 6 0 3 -1 6 -2 6 -1 0 -2 2 -2 4 0 2 -1 4 -2 4 -1
0 -2 3 -2 6 0 3 -1 6 -2 6 -1 0 -2 2 -2 4 0 2 -1 4 -2 4 -1 0 -2 2 -2 4 0 2
-1 4 -2 4 -1 0 -2 2 -2 4 0 2 -1 4 -2 4 -1 0 -2 3 -2 6 0 3 -1 6 -2 6 -1 0 -2
2 -2 4 0 2 -1 4 -2 4 -1 0 -2 2 -2 4 0 2 -1 4 -2 4 -1 0 -2 2 -2 4 0 2 -1 4
-2 4 -1 0 -2 2 -2 4 0 2 -2 4 -4 6 -2 2 -4 4 -4 6 0 2 -1 4 -2 4 -1 0 -2 2 -2
4 0 2 -1 4 -2 4 -1 0 -2 2 -2 4 0 2 -1 4 -2 4 -1 0 -2 2 -2 4 0 2 -2 4 -4 6
-2 2 -4 4 -4 6 0 2 -1 4 -2 4 -1 0 -2 2 -2 4 0 2 -2 4 -4 6 -2 2 -4 4 -4 6 0
2 -2 4 -4 6 -2 2 -4 4 -4 6 0 2 -1 4 -2 4 -1 0 -2 1 -2 3 0 2 -3 6 -6 9 -3 3
-6 7 -6 8 0 2 -2 4 -4 6 -2 2 -4 4 -4 6 0 1 -3 5 -6 8 -3 3 -6 7 -6 8 0 1 -3
5 -6 8 -3 3 -6 7 -6 8 0 1 -4 6 -8 10 -4 4 -8 9 -8 10 0 1 -4 7 -10 12 -5 5
-10 11 -10 12 0 3 -89 92 -92 92 -1 0 -7 5 -12 10 -5 6 -11 10 -12 10 -1 0 -6
4 -10 8 -4 4 -9 8 -10 8 -1 0 -5 3 -8 6 -3 3 -7 6 -8 6 -1 0 -5 3 -8 6 -3 3
-7 6 -8 6 -2 0 -4 2 -6 4 -2 2 -4 4 -6 4 -1 0 -5 3 -8 6 -3 3 -7 6 -9 6 -2 0
-3 1 -3 2 0 1 -2 2 -4 2 -2 0 -4 2 -6 4 -2 2 -4 4 -6 4 -2 0 -4 2 -6 4 -2 2
-4 4 -6 4 -2 0 -4 1 -4 2 0 1 -2 2 -4 2 -2 0 -4 2 -6 4 -2 2 -4 4 -6 4 -2 0
-4 1 -4 2 0 1 -2 2 -4 2 -2 0 -4 1 -4 2 0 1 -2 2 -4 2 -2 0 -4 1 -4 2 0 1 -2
2 -4 2 -2 0 -4 2 -6 4 -2 2 -4 4 -6 4 -2 0 -4 1 -4 2 0 1 -2 2 -4 2 -2 0 -4 1
-4 2 0 1 -2 2 -4 2 -2 0 -4 1 -4 2 0 1 -2 2 -4 2 -2 0 -4 1 -4 2 0 1 -3 2 -6
2 -3 0 -6 1 -6 2 0 1 -2 2 -4 2 -2 0 -4 1 -4 2 0 1 -2 2 -4 2 -2 0 -4 1 -4 2
0 1 -2 2 -4 2 -2 0 -4 1 -4 2 0 1 -3 2 -6 2 -3 0 -6 1 -6 2 0 1 -2 2 -4 2 -2
0 -4 1 -4 2 0 1 -3 2 -6 2 -3 0 -6 1 -6 2 0 1 -2 2 -4 2 -2 0 -4 1 -4 2 0 1
-3 2 -6 2 -3 0 -6 1 -6 2 0 1 -3 2 -6 2 -3 0 -6 1 -6 2 0 1 -3 2 -6 2 -3 0 -6
1 -6 2 0 1 -3 2 -6 2 -3 0 -6 1 -6 2 0 1 -3 2 -6 2 -3 0 -6 1 -6 2 0 1 -3 2
-6 2 -3 0 -6 1 -6 2 0 1 -4 2 -8 2 -4 0 -8 1 -8 2 0 1 -4 2 -8 2 -4 0 -8 1 -8
2 0 1 -4 2 -8 2 -4 0 -8 1 -8 2 0 1 -4 2 -8 2 -4 0 -8 1 -8 2 0 1 -4 2 -10 2
-5 0 -10 1 -10 2 0 1 -4 2 -10 2 -5 0 -10 1 -10 2 0 1 -6 2 -14 2 -8 0 -14 1
-14 2 0 1 -7 2 -16 2 -9 0 -16 1 -16 2 0 1 -9 2 -22 2 -13 0 -22 1 -22 2 0 1
-22 2 -62 2 -40 0 -62 -1 -62 -2z m128 -24 c0 -1 8 -2 20 -2 12 0 20 -1 20 -2
0 -1 7 -2 16 -2 9 0 16 -1 16 -2 0 -1 5 -2 12 -2 7 0 12 -1 12 -2 0 -1 5 -2
10 -2 6 0 10 -1 10 -2 0 -1 5 -2 10 -2 6 0 10 -1 10 -2 0 -1 5 -2 10 -2 6 0
10 -1 10 -2 0 -1 4 -2 8 -2 4 0 8 -1 8 -2 0 -1 4 -2 8 -2 4 0 8 -1 8 -2 0 -1
3 -2 6 -2 3 0 6 -1 6 -2 0 -1 3 -2 6 -2 3 0 6 -1 6 -2 0 -1 4 -2 8 -2 4 0 8
-1 8 -2 0 -1 2 -2 4 -2 2 0 4 -1 4 -2 0 -1 3 -2 6 -2 3 0 6 -1 6 -2 0 -1 3 -2
6 -2 3 0 6 -1 6 -2 0 -1 2 -2 4 -2 2 0 4 -1 4 -2 0 -1 3 -2 6 -2 3 0 6 -1 6
-2 0 -1 3 -2 6 -2 3 0 6 -1 6 -2 0 -1 2 -2 4 -2 2 0 4 -1 4 -2 0 -1 2 -2 4 -2
2 0 4 -1 4 -2 0 -1 3 -2 6 -2 3 0 6 -1 6 -2 0 -1 2 -2 4 -2 2 0 4 -1 4 -2 0
-1 2 -2 4 -2 2 0 4 -1 4 -2 0 -1 2 -2 4 -2 2 0 4 -1 4 -2 0 -1 2 -2 4 -2 2 0
4 -1 4 -2 0 -1 2 -2 4 -2 2 0 4 -1 4 -2 0 -1 2 -2 4 -2 2 0 4 -1 4 -2 0 -1 2
-2 4 -2 2 0 4 -1 4 -2 0 -1 2 -2 4 -2 2 0 4 -1 4 -2 0 -1 2 -2 4 -2 2 0 4 -2
6 -4 2 -2 4 -4 6 -4 2 0 4 -1 4 -2 0 -1 2 -2 4 -2 2 0 4 -1 4 -2 0 -1 2 -2 4
-2 2 0 4 -2 6 -4 2 -2 4 -4 6 -4 2 0 4 -2 6 -4 2 -2 4 -4 6 -4 2 0 4 -1 4 -2
0 -1 2 -2 4 -2 2 0 4 -2 6 -4 2 -2 4 -4 6 -4 1 0 5 -3 8 -6 3 -3 7 -6 9 -6 2
0 3 -1 3 -2 0 -1 1 -2 3 -2 2 0 6 -3 9 -6 3 -3 7 -6 8 -6 1 0 5 -3 8 -6 3 -3
7 -6 8 -6 1 0 7 -4 12 -10 5 -5 11 -10 12 -10 1 0 8 -5 14 -12 6 -7 13 -12 14
-12 3 0 76 -73 76 -76 0 -1 5 -8 12 -14 7 -6 12 -13 12 -14 0 -1 3 -5 6 -8 3
-3 6 -7 6 -8 0 -1 4 -6 8 -10 4 -4 8 -9 8 -10 0 -1 3 -5 6 -8 3 -3 6 -7 6 -8
0 -2 2 -4 4 -6 2 -2 4 -4 4 -6 0 -2 2 -4 4 -6 2 -2 4 -4 4 -6 0 -2 2 -4 4 -6
2 -2 4 -4 4 -6 0 -2 2 -4 4 -6 2 -2 4 -4 4 -6 0 -2 2 -4 4 -6 2 -2 4 -4 4 -6
0 -2 1 -4 2 -4 1 0 2 -2 2 -4 0 -2 2 -4 4 -6 2 -2 4 -4 4 -6 0 -2 1 -4 2 -4 1
0 2 -2 2 -4 0 -2 1 -4 2 -4 1 0 2 -2 2 -4 0 -2 1 -4 2 -4 1 0 2 -2 2 -4 0 -2
2 -4 4 -6 2 -2 4 -4 4 -6 0 -2 1 -4 2 -4 1 0 2 -3 2 -6 0 -3 1 -6 2 -6 1 0 2
-2 2 -4 0 -2 1 -4 2 -4 1 0 2 -2 2 -4 0 -2 1 -4 2 -4 1 0 2 -2 2 -4 0 -2 1 -4
2 -4 1 0 2 -2 2 -4 0 -2 1 -4 2 -4 1 0 2 -2 2 -4 0 -2 1 -4 2 -4 1 0 2 -2 2
-4 0 -2 1 -4 2 -4 1 0 2 -2 2 -4 0 -2 1 -4 2 -4 1 0 2 -3 2 -6 0 -3 1 -6 2 -6
1 0 2 -3 2 -6 0 -3 1 -6 2 -6 1 0 2 -2 2 -4 0 -2 1 -4 2 -4 1 0 2 -3 2 -6 0
-3 1 -6 2 -6 1 0 2 -3 2 -6 0 -3 1 -6 2 -6 1 0 2 -2 2 -4 0 -2 1 -4 2 -4 1 0
2 -3 2 -6 0 -3 1 -6 2 -6 1 0 2 -4 2 -8 0 -4 1 -8 2 -8 1 0 2 -3 2 -6 0 -3 1
-6 2 -6 1 0 2 -4 2 -8 0 -4 1 -8 2 -8 1 0 2 -4 2 -8 0 -4 1 -8 2 -8 1 0 2 -4
2 -10 0 -5 1 -10 2 -10 1 0 2 -4 2 -8 0 -4 1 -8 2 -8 1 0 2 -4 2 -10 0 -5 1
-10 2 -10 1 0 2 -4 2 -10 0 -5 1 -10 2 -10 1 0 2 -5 2 -12 0 -7 1 -12 2 -12 1
0 2 -8 2 -20 0 -12 1 -20 2 -20 1 0 2 -29 2 -84 0 -55 -1 -84 -2 -84 -1 0 -2
-7 -2 -18 0 -11 -1 -18 -2 -18 -1 0 -2 -6 -2 -14 0 -8 -1 -14 -2 -14 -1 0 -2
-5 -2 -12 0 -7 -1 -12 -2 -12 -1 0 -2 -4 -2 -10 0 -5 -1 -10 -2 -10 -1 0 -2
-4 -2 -8 0 -4 -1 -8 -2 -8 -1 0 -2 -4 -2 -10 0 -5 -1 -10 -2 -10 -1 0 -2 -3
-2 -6 0 -3 -1 -6 -2 -6 -1 0 -2 -4 -2 -8 0 -4 -1 -8 -2 -8 -1 0 -2 -3 -2 -6 0
-3 -1 -6 -2 -6 -1 0 -2 -4 -2 -8 0 -4 -1 -8 -2 -8 -1 0 -2 -3 -2 -6 0 -3 -1
-6 -2 -6 -1 0 -2 -3 -2 -6 0 -3 -1 -6 -2 -6 -1 0 -2 -3 -2 -6 0 -3 -1 -6 -2
-6 -1 0 -2 -2 -2 -4 0 -2 -1 -4 -2 -4 -1 0 -2 -3 -2 -6 0 -3 -1 -6 -2 -6 -1 0
-2 -2 -2 -4 0 -2 -1 -4 -2 -4 -1 0 -2 -3 -2 -6 0 -3 -1 -6 -2 -6 -1 0 -2 -2
-2 -4 0 -2 -1 -4 -2 -4 -1 0 -2 -3 -2 -6 0 -3 -1 -6 -2 -6 -1 0 -2 -2 -2 -4 0
-2 -1 -4 -2 -4 -1 0 -2 -2 -2 -4 0 -2 -1 -4 -2 -4 -1 0 -2 -2 -2 -4 0 -2 -1
-4 -2 -4 -1 0 -2 -2 -2 -4 0 -2 -1 -4 -2 -4 -1 0 -2 -2 -2 -4 0 -2 -1 -4 -2
-4 -1 0 -2 -2 -2 -4 0 -2 -1 -4 -2 -4 -1 0 -2 -2 -2 -4 0 -2 -1 -4 -2 -4 -1 0
-2 -2 -2 -4 0 -2 -1 -4 -2 -4 -1 0 -2 -2 -2 -4 0 -2 -2 -4 -4 -6 -2 -2 -4 -4
-4 -6 0 -2 -1 -4 -2 -4 -1 0 -2 -2 -2 -4 0 -2 -2 -4 -4 -6 -2 -2 -4 -4 -4 -6
0 -2 -1 -4 -2 -4 -1 0 -2 -2 -2 -4 0 -2 -1 -4 -2 -4 -1 0 -2 -2 -2 -4 0 -2 -2
-4 -4 -6 -2 -2 -4 -4 -4 -6 0 -2 -2 -4 -4 -6 -2 -2 -4 -4 -4 -6 0 -2 -2 -4 -4
-6 -2 -2 -4 -4 -4 -6 0 -1 -3 -5 -6 -8 -3 -3 -6 -7 -6 -8 0 -1 -3 -5 -6 -8 -3
-3 -6 -7 -6 -8 0 -1 -3 -5 -6 -8 -3 -3 -6 -7 -6 -8 0 -1 -3 -5 -6 -8 -3 -3 -6
-7 -6 -8 0 -1 -5 -8 -12 -14 -7 -6 -12 -13 -12 -14 0 -3 -77 -80 -80 -80 -1 0
-7 -5 -12 -10 -5 -5 -11 -10 -12 -10 -1 0 -6 -4 -10 -8 -4 -4 -9 -8 -10 -8 -1
0 -6 -4 -10 -8 -4 -4 -9 -8 -10 -8 -2 0 -4 -2 -6 -4 -2 -2 -4 -4 -6 -4 -1 0
-5 -3 -8 -6 -3 -3 -7 -6 -8 -6 -2 0 -4 -2 -6 -4 -2 -2 -4 -4 -6 -4 -2 0 -4 -2
-6 -4 -2 -2 -4 -4 -6 -4 -2 0 -4 -2 -6 -4 -2 -2 -4 -4 -6 -4 -2 0 -4 -1 -4 -2
0 -1 -2 -2 -4 -2 -2 0 -4 -2 -6 -4 -2 -2 -4 -4 -6 -4 -2 0 -4 -1 -4 -2 0 -1
-2 -2 -4 -2 -2 0 -4 -2 -6 -4 -2 -2 -4 -4 -6 -4 -2 0 -4 -1 -4 -2 0 -1 -2 -2
-4 -2 -2 0 -4 -1 -4 -2 0 -1 -2 -2 -4 -2 -2 0 -4 -1 -4 -2 0 -1 -2 -2 -4 -2
-2 0 -4 -1 -4 -2 0 -1 -2 -2 -4 -2 -2 0 -4 -1 -4 -2 0 -1 -2 -2 -4 -2 -2 0 -4
-1 -4 -2 0 -1 -2 -2 -4 -2 -2 0 -4 -1 -4 -2 0 -1 -2 -2 -4 -2 -2 0 -4 -1 -4
-2 0 -1 -2 -2 -4 -2 -2 0 -4 -1 -4 -2 0 -1 -2 -2 -4 -2 -2 0 -4 -1 -4 -2 0 -1
-3 -2 -6 -2 -3 0 -6 -1 -6 -2 0 -1 -2 -2 -4 -2 -2 0 -4 -1 -4 -2 0 -1 -3 -2
-6 -2 -3 0 -6 -1 -6 -2 0 -1 -2 -2 -4 -2 -2 0 -4 -1 -4 -2 0 -1 -3 -2 -6 -2
-3 0 -6 -1 -6 -2 0 -1 -2 -2 -4 -2 -2 0 -4 -1 -4 -2 0 -1 -3 -2 -6 -2 -3 0 -6
-1 -6 -2 0 -1 -3 -2 -6 -2 -3 0 -6 -1 -6 -2 0 -1 -3 -2 -6 -2 -3 0 -6 -1 -6
-2 0 -1 -3 -2 -6 -2 -3 0 -6 -1 -6 -2 0 -1 -3 -2 -6 -2 -3 0 -6 -1 -6 -2 0 -1
-4 -2 -8 -2 -4 0 -8 -1 -8 -2 0 -1 -4 -2 -8 -2 -4 0 -8 -1 -8 -2 0 -1 -4 -2
-8 -2 -4 0 -8 -1 -8 -2 0 -1 -4 -2 -8 -2 -4 0 -8 -1 -8 -2 0 -1 -4 -2 -10 -2
-5 0 -10 -1 -10 -2 0 -1 -4 -2 -10 -2 -5 0 -10 -1 -10 -2 0 -1 -5 -2 -12 -2
-7 0 -12 -1 -12 -2 0 -1 -7 -2 -16 -2 -9 0 -16 -1 -16 -2 0 -1 -8 -2 -20 -2
-12 0 -20 -1 -20 -2 0 -1 -26 -2 -74 -2 -48 0 -74 1 -74 2 0 1 -7 2 -18 2 -11
0 -18 1 -18 2 0 1 -7 2 -16 2 -9 0 -16 1 -16 2 0 1 -5 2 -12 2 -7 0 -12 1 -12
2 0 1 -4 2 -10 2 -5 0 -10 1 -10 2 0 1 -4 2 -10 2 -5 0 -10 1 -10 2 0 1 -4 2
-8 2 -4 0 -8 1 -8 2 0 1 -4 2 -8 2 -4 0 -8 1 -8 2 0 1 -4 2 -8 2 -4 0 -8 1 -8
2 0 1 -4 2 -8 2 -4 0 -8 1 -8 2 0 1 -3 2 -6 2 -3 0 -6 1 -6 2 0 1 -3 2 -6 2
-3 0 -6 1 -6 2 0 1 -3 2 -6 2 -3 0 -6 1 -6 2 0 1 -3 2 -6 2 -3 0 -6 1 -6 2 0
1 -3 2 -6 2 -3 0 -6 1 -6 2 0 1 -3 2 -6 2 -3 0 -6 1 -6 2 0 1 -2 2 -4 2 -2 0
-4 1 -4 2 0 1 -3 2 -6 2 -3 0 -6 1 -6 2 0 1 -2 2 -4 2 -2 0 -4 1 -4 2 0 1 -2
2 -4 2 -2 0 -4 1 -4 2 0 1 -2 2 -4 2 -2 0 -4 1 -4 2 0 1 -3 2 -6 2 -3 0 -6 1
-6 2 0 1 -2 2 -4 2 -2 0 -4 1 -4 2 0 1 -2 2 -4 2 -2 0 -4 1 -4 2 0 1 -2 2 -4
2 -2 0 -4 1 -4 2 0 1 -2 2 -4 2 -2 0 -4 1 -4 2 0 1 -2 2 -4 2 -2 0 -4 1 -4 2
0 1 -2 2 -4 2 -2 0 -4 1 -4 2 0 1 -2 2 -4 2 -2 0 -4 1 -4 2 0 1 -2 2 -4 2 -2
0 -4 1 -4 2 0 1 -2 2 -4 2 -2 0 -4 2 -6 4 -2 2 -4 4 -6 4 -2 0 -4 1 -4 2 0 1
-2 2 -4 2 -2 0 -4 2 -6 4 -2 2 -4 4 -6 4 -2 0 -4 1 -4 2 0 1 -2 2 -4 2 -2 0
-4 2 -6 4 -2 2 -4 4 -6 4 -2 0 -4 2 -6 4 -2 2 -4 4 -6 4 -2 0 -4 2 -6 4 -2 2
-4 4 -6 4 -1 0 -5 3 -8 6 -3 3 -7 6 -8 6 -2 0 -4 2 -6 4 -2 2 -4 4 -6 4 -1 0
-5 3 -8 6 -3 3 -7 6 -8 6 -1 0 -7 5 -12 10 -5 5 -11 10 -12 10 -1 0 -7 5 -12
10 -5 6 -11 10 -12 10 -3 0 -72 69 -72 72 0 1 -6 8 -14 16 -8 8 -14 15 -14 16
0 1 -4 6 -8 10 -4 4 -8 9 -8 10 0 1 -3 5 -6 8 -3 3 -6 7 -6 8 0 1 -3 5 -6 8
-3 3 -6 7 -6 8 0 1 -3 5 -6 8 -3 3 -6 7 -6 8 0 2 -2 4 -4 6 -2 2 -4 4 -4 6 0
2 -2 4 -4 6 -2 2 -4 4 -4 6 0 2 -1 4 -2 4 -1 0 -2 2 -2 4 0 2 -2 4 -4 6 -2 2
-4 4 -4 6 0 2 -2 4 -4 6 -2 2 -4 4 -4 6 0 2 -1 4 -2 4 -1 0 -2 2 -2 4 0 2 -1
4 -2 4 -1 0 -2 2 -2 4 0 2 -1 4 -2 4 -1 0 -2 2 -2 4 0 2 -2 4 -4 6 -2 2 -4 4
-4 6 0 2 -1 4 -2 4 -1 0 -2 2 -2 4 0 2 -1 4 -2 4 -1 0 -2 2 -2 4 0 2 -1 4 -2
4 -1 0 -2 2 -2 4 0 2 -1 4 -2 4 -1 0 -2 2 -2 4 0 2 -1 4 -2 4 -1 0 -2 2 -2 4
0 2 -1 4 -2 4 -1 0 -2 3 -2 6 0 3 -1 6 -2 6 -1 0 -2 2 -2 4 0 2 -1 4 -2 4 -1
0 -2 2 -2 4 0 2 -1 4 -2 4 -1 0 -2 2 -2 4 0 2 -1 4 -2 4 -1 0 -2 3 -2 6 0 3
-1 6 -2 6 -1 0 -2 2 -2 4 0 2 -1 4 -2 4 -1 0 -2 3 -2 6 0 3 -1 6 -2 6 -1 0 -2
3 -2 6 0 3 -1 6 -2 6 -1 0 -2 3 -2 6 0 3 -1 6 -2 6 -1 0 -2 3 -2 6 0 3 -1 6
-2 6 -1 0 -2 3 -2 6 0 3 -1 6 -2 6 -1 0 -2 4 -2 8 0 4 -1 8 -2 8 -1 0 -2 3 -2
6 0 3 -1 6 -2 6 -1 0 -2 4 -2 8 0 4 -1 8 -2 8 -1 0 -2 3 -2 6 0 3 -1 6 -2 6
-1 0 -2 4 -2 8 0 4 -1 8 -2 8 -1 0 -2 5 -2 10 0 6 -1 10 -2 10 -1 0 -2 5 -2
10 0 6 -1 10 -2 10 -1 0 -2 6 -2 14 0 8 -1 14 -2 14 -1 0 -2 6 -2 14 0 8 -1
14 -2 14 -1 0 -2 7 -2 18 0 11 -1 18 -2 18 -1 0 -2 24 -2 68 0 44 1 68 2 68 1
0 2 9 2 22 0 13 1 22 2 22 1 0 2 7 2 16 0 9 1 16 2 16 1 0 2 5 2 12 0 7 1 12
2 12 1 0 2 5 2 10 0 6 1 10 2 10 1 0 2 5 2 10 0 6 1 10 2 10 1 0 2 4 2 8 0 4
1 8 2 8 1 0 2 4 2 8 0 4 1 8 2 8 1 0 2 4 2 8 0 4 1 8 2 8 1 0 2 4 2 8 0 4 1 8
2 8 1 0 2 3 2 6 0 3 1 6 2 6 1 0 2 3 2 6 0 3 1 6 2 6 1 0 2 3 2 6 0 3 1 6 2 6
1 0 2 3 2 6 0 3 1 6 2 6 1 0 2 3 2 6 0 3 1 6 2 6 1 0 2 2 2 4 0 2 1 4 2 4 1 0
2 3 2 6 0 3 1 6 2 6 1 0 2 3 2 6 0 3 1 6 2 6 1 0 2 2 2 4 0 2 1 4 2 4 1 0 2 2
2 4 0 2 1 4 2 4 1 0 2 3 2 6 0 3 1 6 2 6 1 0 2 2 2 4 0 2 1 4 2 4 1 0 2 2 2 4
0 2 1 4 2 4 1 0 2 2 2 4 0 2 1 4 2 4 1 0 2 2 2 4 0 2 1 4 2 4 1 0 2 2 2 4 0 2
1 4 2 4 1 0 2 2 2 4 0 2 1 4 2 4 1 0 2 2 2 4 0 2 1 4 2 4 1 0 2 2 2 4 0 2 1 4
2 4 1 0 2 2 2 4 0 2 2 4 4 6 2 2 4 4 4 6 0 2 1 4 2 4 1 0 2 2 2 4 0 2 1 4 2 4
1 0 2 2 2 4 0 2 2 4 4 6 2 2 4 4 4 6 0 2 1 4 2 4 1 0 2 2 2 4 0 2 2 4 4 6 2 2
4 4 4 6 0 2 2 4 4 6 2 2 4 4 4 6 0 2 2 4 4 6 2 2 4 4 4 6 0 1 3 5 6 8 3 3 6 7
6 8 0 1 3 5 6 8 3 3 6 7 6 8 0 1 3 5 6 8 3 3 6 7 6 8 0 1 5 7 10 12 6 5 10 11
10 12 0 1 5 7 10 12 6 5 10 11 10 12 0 3 69 72 72 72 1 0 8 5 14 12 6 7 13 12
14 12 1 0 7 5 12 10 5 6 11 10 12 10 1 0 5 3 8 6 3 3 7 6 8 6 1 0 5 3 8 6 3 3
7 6 8 6 2 0 4 2 6 4 2 2 4 4 6 4 1 0 5 3 8 6 3 3 7 6 9 6 2 0 3 1 3 2 0 1 2 2
4 2 2 0 4 2 6 4 2 2 4 4 6 4 2 0 4 1 4 2 0 1 2 2 4 2 2 0 4 2 6 4 2 2 4 4 6 4
2 0 4 1 4 2 0 1 2 2 4 2 2 0 4 1 4 2 0 1 2 2 4 2 2 0 4 2 6 4 2 2 4 4 6 4 2 0
4 1 4 2 0 1 2 2 4 2 2 0 4 1 4 2 0 1 2 2 4 2 2 0 4 1 4 2 0 1 2 2 4 2 2 0 4 1
4 2 0 1 2 2 4 2 2 0 4 1 4 2 0 1 2 2 4 2 2 0 4 1 4 2 0 1 2 2 4 2 2 0 4 1 4 2
0 1 2 2 4 2 2 0 4 1 4 2 0 1 2 2 4 2 2 0 4 1 4 2 0 1 3 2 6 2 3 0 6 1 6 2 0 1
2 2 4 2 2 0 4 1 4 2 0 1 3 2 6 2 3 0 6 1 6 2 0 1 2 2 4 2 2 0 4 1 4 2 0 1 3 2
6 2 3 0 6 1 6 2 0 1 2 2 4 2 2 0 4 1 4 2 0 1 3 2 6 2 3 0 6 1 6 2 0 1 3 2 6 2
3 0 6 1 6 2 0 1 3 2 6 2 3 0 6 1 6 2 0 1 3 2 6 2 3 0 6 1 6 2 0 1 3 2 6 2 3 0
6 1 6 2 0 1 4 2 8 2 4 0 8 1 8 2 0 1 3 2 6 2 3 0 6 1 6 2 0 1 5 2 10 2 6 0 10
1 10 2 0 1 4 2 8 2 4 0 8 1 8 2 0 1 5 2 10 2 6 0 10 1 10 2 0 1 5 2 10 2 6 0
10 1 10 2 0 1 6 2 14 2 8 0 14 1 14 2 0 1 6 2 14 2 8 0 14 1 14 2 0 1 10 2 26
2 16 0 26 1 26 2 0 1 22 2 62 2 40 0 62 -1 62 -2z"/>
<path d="M1869 2675 l-9 -9 0 -173 c0 -114 -1 -173 -2 -173 -1 0 -2 -2 -2 -5
0 -6 12 -19 17 -19 2 0 3 -1 3 -2 0 -1 1 -2 3 -2 2 0 6 -3 9 -6 3 -3 7 -6 8
-6 2 0 4 -2 6 -4 2 -2 4 -4 6 -4 2 0 4 -2 6 -4 2 -2 4 -4 6 -4 2 0 4 -2 6 -4
2 -2 4 -4 6 -4 1 0 5 -3 8 -6 3 -3 7 -6 8 -6 2 0 4 -2 6 -4 2 -2 4 -4 6 -4 1
0 5 -3 8 -6 3 -3 7 -6 8 -6 2 0 4 -2 6 -4 2 -2 4 -4 6 -4 2 0 4 -2 6 -4 2 -2
4 -4 6 -4 2 0 4 -2 6 -4 2 -2 4 -4 6 -4 1 0 5 -3 8 -6 3 -3 7 -6 9 -6 2 0 3
-1 3 -2 0 -1 1 -2 3 -2 4 0 9 -5 9 -9 0 -2 1 -3 2 -3 1 0 2 -1 2 -3 0 -4 -9
-13 -12 -13 -2 0 -4 -2 -6 -4 -2 -2 -4 -4 -6 -4 -2 0 -4 -2 -6 -4 -2 -2 -4 -4
-6 -4 -2 0 -4 -2 -6 -4 -2 -2 -4 -4 -6 -4 -2 0 -4 -2 -6 -4 -2 -2 -4 -4 -6 -4
-2 0 -4 -2 -6 -4 -2 -2 -4 -4 -6 -4 -2 0 -4 -2 -6 -4 -2 -2 -4 -4 -6 -4 -2 0
-4 -2 -6 -4 -2 -2 -4 -4 -6 -4 -2 0 -4 -2 -6 -4 -2 -2 -4 -4 -6 -4 -2 0 -4 -2
-6 -4 -2 -3 -5 -4 -12 -4 -8 0 -10 -1 -10 -3 0 -4 -5 -9 -8 -9 -2 0 -4 -2 -6
-4 -2 -2 -4 -4 -6 -4 -2 0 -4 -2 -6 -4 -2 -2 -4 -4 -6 -4 -2 0 -4 -2 -6 -4 -2
-2 -4 -4 -6 -4 -2 0 -4 -2 -6 -4 -2 -2 -4 -4 -6 -4 -2 0 -4 -2 -6 -4 -2 -2 -4
-4 -6 -4 -2 0 -4 -2 -6 -4 -2 -2 -4 -4 -6 -4 -2 0 -4 -1 -4 -2 0 -1 -1 -2 -3
-2 -2 0 -6 -3 -9 -6 -3 -3 -7 -6 -9 -6 -2 0 -3 -1 -3 -2 0 -1 -2 -2 -4 -2 -2
0 -4 -2 -6 -4 -2 -2 -4 -4 -6 -4 -2 0 -4 -2 -6 -4 -2 -2 -4 -4 -6 -4 -2 0 -4
-2 -6 -4 -2 -2 -4 -4 -6 -4 -1 0 -5 -3 -8 -6 -3 -3 -7 -6 -9 -6 -2 0 -3 -1 -3
-2 0 -1 -2 -2 -4 -2 -2 0 -4 -2 -6 -4 -2 -2 -4 -4 -6 -4 -2 0 -4 -2 -6 -4 -2
-2 -4 -4 -6 -4 -2 0 -4 -2 -6 -4 -2 -2 -4 -4 -6 -4 -2 0 -4 -2 -6 -4 -2 -2 -4
-4 -6 -4 -2 0 -4 -2 -6 -4 -2 -2 -4 -4 -6 -4 -2 0 -4 -2 -6 -4 -2 -2 -4 -4 -6
-4 -2 0 -4 -2 -6 -4 -2 -2 -4 -4 -6 -4 -2 0 -4 -2 -6 -4 -2 -2 -4 -4 -6 -4 -2
0 -4 -2 -6 -4 -2 -2 -4 -4 -6 -4 -2 0 -4 -2 -6 -4 -2 -2 -4 -4 -6 -4 -2 0 -4
-2 -6 -4 -2 -2 -4 -4 -6 -4 -2 0 -4 -2 -6 -4 -2 -2 -4 -4 -6 -4 -2 0 -4 -2 -6
-4 -2 -2 -4 -4 -6 -4 -2 0 -4 -2 -6 -4 -2 -2 -4 -4 -6 -4 -2 0 -4 -2 -6 -4 -2
-2 -4 -4 -6 -4 -2 0 -4 -2 -6 -4 -2 -2 -4 -4 -6 -4 -2 0 -4 -2 -6 -4 -2 -2 -4
-4 -6 -4 -1 0 -5 -3 -8 -6 -3 -3 -7 -6 -9 -6 -2 0 -3 -1 -3 -2 0 -1 -2 -2 -4
-2 -2 0 -4 -2 -6 -4 -2 -2 -4 -4 -6 -4 -2 0 -4 -2 -6 -4 -2 -2 -4 -4 -6 -4 -2
0 -4 -2 -6 -4 -2 -2 -4 -4 -6 -4 -1 0 -5 -3 -8 -6 -3 -3 -7 -6 -8 -6 -2 0 -4
-2 -6 -4 -2 -2 -4 -4 -6 -4 -2 0 -4 -1 -4 -2 0 -1 -2 -2 -4 -2 -2 0 -4 -2 -6
-4 -2 -2 -4 -4 -6 -4 -2 0 -4 -2 -6 -4 -2 -2 -4 -4 -6 -4 -2 0 -4 -2 -6 -4 -2
-2 -4 -4 -6 -4 -2 0 -4 -2 -6 -4 -2 -2 -4 -4 -6 -4 -2 0 -4 -1 -4 -2 0 -1 -2
-2 -4 -2 -2 0 -4 -2 -6 -4 -2 -2 -4 -4 -5 -4 -2 0 -7 -4 -12 -9 -7 -7 -9 -10
-9 -15 0 -5 2 -8 9 -15 5 -5 10 -9 11 -9 1 0 5 -3 8 -6 3 -3 7 -6 8 -6 1 0 5
-3 8 -6 3 -3 7 -6 8 -6 2 0 4 -2 6 -4 2 -2 4 -4 6 -4 1 0 6 -4 10 -8 4 -4 9
-8 10 -8 2 0 4 -2 6 -4 2 -2 4 -4 6 -4 1 0 5 -3 8 -6 3 -3 7 -6 8 -6 2 0 4 -2
6 -4 2 -3 5 -4 12 -4 6 0 10 1 10 2 0 1 2 2 4 2 2 0 4 2 6 4 2 2 4 4 6 4 2 0
4 2 6 4 2 2 4 4 6 4 2 0 4 2 6 4 2 2 4 4 6 4 2 0 4 2 6 4 2 2 4 4 6 4 2 0 4 2
6 4 2 2 4 4 6 4 2 0 4 2 6 4 2 2 4 4 6 4 2 0 4 2 6 4 2 2 4 4 6 4 1 0 5 3 8 6
3 3 7 6 8 6 2 0 4 2 6 4 2 2 4 4 6 4 2 0 4 2 6 4 2 2 4 4 6 4 2 0 4 2 6 4 2 2
4 4 6 4 2 0 4 2 6 4 2 2 4 4 6 4 2 0 4 2 6 4 2 2 4 4 6 4 2 0 4 1 4 2 0 1 1 2
3 2 2 0 6 3 9 6 3 3 7 6 8 6 2 0 4 2 6 4 2 2 4 4 6 4 2 0 4 2 6 4 2 2 4 4 6 4
2 0 4 2 6 4 2 2 4 4 6 4 2 0 4 2 6 4 2 2 4 4 6 4 2 0 4 2 6 4 2 2 4 4 6 4 2 0
4 2 6 4 2 2 4 4 6 4 2 0 4 2 6 4 2 2 4 4 6 4 2 0 4 2 6 4 2 2 4 4 6 4 2 0 4 2
6 4 2 2 4 4 6 4 2 0 4 2 6 4 2 2 4 4 6 4 2 0 4 2 6 4 2 2 4 4 6 4 2 0 4 2 6 4
2 2 4 4 6 4 2 0 4 2 6 4 2 2 4 4 6 4 2 0 4 2 6 4 2 2 4 4 6 4 2 0 4 1 4 2 1 2
2 2 5 0 3 -3 3 -20 3 -205 0 -133 1 -201 2 -201 1 0 2 -1 2 -3 0 -2 2 -5 5 -8
l5 -5 128 0 128 0 7 7 7 7 0 258 c0 221 0 259 3 261 2 3 26 3 158 3 102 0 155
1 155 2 0 1 1 2 3 2 4 0 9 5 9 9 0 2 1 3 2 3 1 0 2 3 2 6 0 3 1 6 2 6 1 0 2 3
2 6 0 3 1 6 2 6 1 0 2 3 2 6 0 3 1 6 2 6 1 0 2 2 2 4 0 2 1 4 2 4 1 0 2 3 2 6
0 3 1 6 2 6 1 0 2 2 2 4 0 2 1 4 2 4 1 0 2 3 2 6 0 3 1 6 2 6 1 0 2 2 2 4 0 2
1 4 2 4 1 0 2 3 2 6 0 3 1 6 2 6 1 0 2 2 2 4 0 2 1 4 2 4 1 0 2 3 2 6 0 3 1 6
2 6 1 0 2 3 2 6 0 3 1 6 2 6 1 0 2 2 2 4 0 2 1 4 2 4 1 0 2 3 2 6 0 3 1 6 2 6
1 0 2 2 2 4 0 2 1 4 2 4 1 0 2 3 2 6 0 3 1 6 2 6 1 0 2 3 2 6 0 3 1 6 2 6 1 0
2 3 2 6 0 3 1 6 2 6 1 0 2 3 2 6 0 3 1 6 2 6 1 0 2 2 2 4 0 2 1 4 2 4 1 0 2 3
2 6 0 3 1 6 2 6 1 0 2 3 2 6 0 3 1 6 2 6 1 0 2 4 2 9 0 8 -1 10 -7 16 l-7 7
-200 0 c-171 0 -201 0 -203 3 -4 4 -4 154 0 158 2 3 37 3 242 3 158 0 239 1
239 2 0 1 1 2 3 2 4 0 9 5 9 9 0 2 1 3 2 3 1 0 2 3 2 6 0 3 1 6 2 6 1 0 2 2 2
4 0 2 1 4 2 4 1 0 2 3 2 6 0 3 1 6 2 6 1 0 2 2 2 4 0 2 1 4 2 4 1 0 2 3 2 6 0
3 1 6 2 6 1 0 2 3 2 6 0 3 1 6 2 6 1 0 2 2 2 4 0 2 1 4 2 4 1 0 2 3 2 6 0 3 1
6 2 6 1 0 2 2 2 4 0 2 1 4 2 4 1 0 2 3 2 6 0 3 1 6 2 6 1 0 2 2 2 4 0 2 1 4 2
4 1 0 2 3 2 6 0 3 1 6 2 6 1 0 2 2 2 4 0 2 1 4 2 4 1 0 2 3 2 6 0 3 1 6 2 6 1
0 2 3 2 6 0 3 1 6 2 6 1 0 2 2 2 4 0 2 1 4 2 4 1 0 2 3 2 6 0 3 1 6 2 6 1 0 2
3 2 6 0 3 1 6 2 6 1 0 2 2 2 4 0 2 1 4 2 4 1 0 2 3 2 6 0 3 1 6 2 6 1 0 2 2 2
4 0 2 1 4 2 4 1 0 2 2 2 4 0 2 1 4 2 4 1 0 2 3 2 6 0 3 1 6 2 6 1 0 2 3 2 6 0
3 -1 6 -2 6 -1 0 -2 1 -2 3 0 2 -3 6 -7 10 l-7 7 -420 0 -421 0 -8 -9z"/>
</g>
</svg>
